<?xml version="1.0" standalone="no"?>
<!DOCTYPE svg PUBLIC "-//W3C//DTD SVG 1.1//EN" "http://www.w3.org/Graphics/SVG/1.1/DTD/svg11.dtd" >
<svg xmlns="http://www.w3.org/2000/svg">
<metadata></metadata>
<defs>
<font id="aperculight" horiz-adv-x="1196" >
<font-face units-per-em="2048" ascent="1638" descent="-410" />
<missing-glyph horiz-adv-x="516" />
<glyph horiz-adv-x="0" />
<glyph horiz-adv-x="0" />
<glyph unicode="&#xd;" horiz-adv-x="681" />
<glyph unicode=" "  horiz-adv-x="516" />
<glyph unicode="&#x09;" horiz-adv-x="516" />
<glyph unicode="&#xa0;" horiz-adv-x="516" />
<glyph unicode="!" horiz-adv-x="665" d="M225 109q0 49 31 79q33 33 82 33t80 -33q33 -31 33 -80t-33 -81q-31 -31 -80 -31t-82 31q-31 33 -31 82zM252 1434h172l-45 -1057h-82z" />
<glyph unicode="&#x22;" horiz-adv-x="856" d="M186 1450h183l-43 -467h-97zM487 1450h183l-43 -467h-97z" />
<glyph unicode="#" horiz-adv-x="1468" d="M158 438v111h264l67 336h-249v110h274l88 439h115l-88 -439h325l90 439h115l-90 -439h242v-110h-264l-68 -336h250v-111h-275l-88 -438h-114l88 438h-326l-90 -438h-115l90 438h-241zM537 549h327l68 336h-328z" />
<glyph unicode="$" horiz-adv-x="1036" d="M86 371l117 69q43 -154 114.5 -241.5t206.5 -87.5q123 0 196 73.5t73 214.5q0 98 -63.5 166t-156.5 111q-66 31 -136 65.5t-129.5 82.5t-97.5 115t-36 159q0 141 82 235q84 98 207 113v172h123v-174q102 -14 159.5 -66.5t110.5 -148.5l-111 -70q-86 164 -237 164 q-47 0 -84 -17.5t-62.5 -46t-39 -66.5t-13.5 -79q0 -96 64.5 -160.5t156.5 -107.5q47 -20 92.5 -43t90.5 -45q92 -45 156.5 -134t64.5 -221q0 -86 -25.5 -158.5t-71.5 -128t-110.5 -89t-140.5 -43.5v-168h-123v168q-150 18 -247 122.5t-130 264.5z" />
<glyph unicode="%" horiz-adv-x="1728" d="M127 1122q0 135 90 232q92 96 232 96q139 0 229 -96q92 -96 92 -232q0 -139 -92 -233q-88 -94 -229 -94q-140 0 -232 94q-90 96 -90 233zM238 1122q0 -96 57 -155q57 -61 154 -62q94 0 153 62q57 59 57 155t-57 156q-59 61 -153 61q-97 0 -154 -61q-57 -59 -57 -156z M266 18l1110 1465l86 -68l-1110 -1464zM958 311q0 135 91 232q92 96 231 96t229 -96q92 -96 93 -232q0 -139 -93 -233q-88 -94 -229 -94q-139 0 -231 94q-90 96 -91 233zM1069 311q0 -96 57 -155q57 -61 154 -62q94 0 154 62q57 59 57 155t-57 156q-59 61 -154 61 q-97 0 -154 -61q-57 -59 -57 -156z" />
<glyph unicode="&#x26;" horiz-adv-x="1345" d="M162 397q0 80 22.5 147.5t61.5 123t90 98.5t110 74q-135 184 -135 305q0 72 24.5 128t65.5 96t97.5 60.5t122.5 20.5q143 0 228 -79t85 -208q0 -209 -303 -364l334 -428q29 55 55.5 120.5t52.5 141.5l88 -103q-57 -158 -117 -262l211 -268h-147l-133 168 q-151 -184 -395 -184q-94 0 -171 27.5t-132.5 80.5t-85 130t-29.5 175zM289 393q0 -131 81 -211t210 -80q195 0 317 164l-377 482q-231 -127 -231 -355zM438 1137q0 -94 119 -246q129 63 189.5 122.5t60.5 139.5t-47 133t-139 53q-86 0 -134.5 -52t-48.5 -150z" />
<glyph unicode="'" horiz-adv-x="555" d="M186 1450h183l-43 -467h-97z" />
<glyph unicode="(" horiz-adv-x="575" d="M145 717q0 459 224 819h135q-217 -352 -217 -819t217 -819h-135q-223 360 -224 819z" />
<glyph unicode=")" horiz-adv-x="575" d="M72 -102q217 352 217 819t-217 819h135q223 -360 223 -819t-223 -819h-135z" />
<glyph unicode="*" horiz-adv-x="1007" d="M125 1135l37 110l284 -94v299h115v-299l285 94l37 -110l-285 -97l176 -237l-94 -70l-176 240l-176 -240l-95 70l177 237z" />
<glyph unicode="+" horiz-adv-x="1116" d="M141 590v115h363v360h114v-360h363v-115h-363v-363h-114v363h-363z" />
<glyph unicode="," horiz-adv-x="571" d="M135 -158l103 338h188l-197 -338h-94z" />
<glyph unicode="-" horiz-adv-x="964" d="M145 592v115h674v-115h-674z" />
<glyph unicode="." horiz-adv-x="581" d="M186 100q0 45 30 75t75 30t74.5 -30t29.5 -75t-29.5 -74.5t-74.5 -29.5t-75 28.5t-30 75.5z" />
<glyph unicode="/" horiz-adv-x="1079" d="M35 -102l893 1638h135l-893 -1638h-135z" />
<glyph unicode="0" horiz-adv-x="1261" d="M137 717q0 339 125 534q125 199 369 199q242 0 366 -199q127 -199 127 -534q0 -336 -127 -537q-127 -197 -366 -196q-244 0 -369 196q-125 199 -125 537zM268 717q0 -279 97 -449q96 -170 266 -170t266 170t96 449q0 278 -96 448t-266 170t-266 -170t-97 -448z" />
<glyph unicode="1" horiz-adv-x="708" d="M145 1067v156l332 211h33v-1434h-127v1217z" />
<glyph unicode="2" horiz-adv-x="1165" d="M154 0v47l522 676q100 127 129 192q31 68 31 158q0 123 -68 192.5t-186 69.5q-111 0 -185.5 -79.5t-93.5 -208.5l-119 22q14 164 125 274q106 106 273 107q86 0 156.5 -25.5t120.5 -75t79 -120t29 -160.5q0 -164 -174 -387l-439 -567h647v-115h-847z" />
<glyph unicode="3" horiz-adv-x="1173" d="M129 393l127 19q16 -143 96 -228.5t217 -85.5q156 0 239 90.5t83 249.5q0 166 -84 254t-238 88q-70 0 -127 -37l-61 80l371 496h-551v115h749v-35l-387 -514q18 6 53 6q164 0 285 -123q121 -121 121 -330q0 -205 -123 -329q-119 -125 -330 -125q-90 0 -165.5 27.5 t-133 80.5t-94.5 129t-47 172z" />
<glyph unicode="4" horiz-adv-x="1191" d="M121 330v35l604 1069h156v-990h190v-114h-190v-330h-127v330h-633zM301 444h453v809z" />
<glyph unicode="5" horiz-adv-x="1153" d="M147 377l125 22q39 -301 295 -301q154 0 233 97.5t79 271.5q0 184 -82 276.5t-230 92.5q-182 0 -295 -193l-90 21l74 770h670v-115h-555l-52 -488q111 119 261 119q98 0 178 -33.5t136 -96t86 -152.5t30 -201q0 -217 -119 -350q-121 -133 -324 -133q-172 0 -283.5 98 t-136.5 295z" />
<glyph unicode="6" horiz-adv-x="1175" d="M160 451q0 131 76 264l423 735h134l-320 -567q47 35 133 35q195 0 322 -136q125 -131 125 -331q0 -201 -125 -334q-127 -133 -322 -133t-321 133q-125 133 -125 334zM291 451q0 -154 88 -254q88 -98 227 -99q135 0 225 99q90 102 91 254q0 80 -24 145.5t-64.5 111.5 t-99 70.5t-128.5 24.5t-128 -24.5t-99 -70.5t-64.5 -111.5t-23.5 -145.5z" />
<glyph unicode="7" horiz-adv-x="978" d="M121 1319v115h794v-41l-567 -1393h-133l549 1319h-643z" />
<glyph unicode="8" horiz-adv-x="1183" d="M162 401q0 66 17.5 125.5t48 107.5t72.5 84t91 54q-78 41 -129 120t-51 185q0 166 104 269q106 104 277 104q170 0 274 -104q107 -101 107 -269q0 -106 -51.5 -185t-128.5 -120q49 -18 91 -54t72.5 -84t48 -107.5t17.5 -125.5q0 -197 -125 -307q-123 -111 -305 -110 q-182 0 -307 110q-123 111 -123 307zM293 401q0 -141 82 -222t217 -81q137 0 218 81t81 222t-82 222.5t-217 81.5t-217 -81t-82 -223zM338 1077q0 -119 70 -188q70 -70 184 -70q115 0 184 70q70 70 70 188q0 117 -70 187q-72 72 -184 71q-113 0 -184 -71q-70 -70 -70 -187z " />
<glyph unicode="9" horiz-adv-x="1161" d="M145 983q0 201 125 332q125 135 322 135q195 0 321 -135q125 -131 125 -332q0 -131 -75 -264l-424 -735h-133l319 567q-47 -35 -133 -35q-195 0 -322 133q-125 133 -125 334zM276 983q0 -80 24 -145.5t65 -111.5t99 -70.5t128 -24.5t128 24.5t99 70.5t64.5 111.5 t23.5 145.5q0 152 -90 252q-88 100 -225 100q-139 0 -227 -100q-88 -96 -89 -252z" />
<glyph unicode=":" horiz-adv-x="610" d="M201 100q0 33 18.5 58.5t46 38t58 7.5t55.5 -30t30 -55.5t-7.5 -58t-38 -46t-58.5 -18.5q-47 0 -75.5 28.5t-28.5 75.5zM201 850q0 33 18.5 58.5t46 37.5t58 7t55.5 -29q25 -25 30 -55.5t-7.5 -58.5t-38 -46.5t-58.5 -18.5q-47 0 -75.5 29t-28.5 76z" />
<glyph unicode=";" horiz-adv-x="610" d="M125 -158l102 338h189l-197 -338h-94zM201 850q0 33 18.5 58.5t46 37.5t58 7t55.5 -29q25 -25 30 -55.5t-7.5 -58.5t-38 -46.5t-58.5 -18.5q-47 0 -75.5 29t-28.5 76z" />
<glyph unicode="&#x3c;" horiz-adv-x="925" d="M115 565v140l684 368v-127l-580 -311l580 -311v-127z" />
<glyph unicode="=" horiz-adv-x="1210" d="M209 408v114h792v-114h-792zM209 748v114h792v-114h-792z" />
<glyph unicode="&#x3e;" horiz-adv-x="925" d="M127 197v127l580 311l-580 311v127l684 -368v-140z" />
<glyph unicode="?" horiz-adv-x="897" d="M102 1145q25 143 120 224t255 81q141 0 229.5 -79t88.5 -208q0 -160 -179 -254l-147 -80q-72 -39 -102.5 -79.5t-30.5 -102.5q0 -57 32.5 -91t90.5 -34q61 0 100 32t62 103l102 -39q-59 -215 -260 -215q-106 0 -180 62.5t-74 185.5q0 164 180 262l168 93q106 57 107 151 q0 82 -51.5 128t-149.5 46q-180 0 -232 -209zM354 109q0 49 31 79q33 33 82 33t80 -33q33 -31 33 -80t-33 -81q-31 -31 -80 -31t-82 31q-31 33 -31 82z" />
<glyph unicode="@" horiz-adv-x="1765" d="M104 616q0 209 68 374t184 270q117 104 257.5 157t299.5 53q332 0 539 -194q205 -193 205 -555q0 -125 -26.5 -219t-73 -156.5t-111 -93.5t-139.5 -31q-86 0 -144.5 47t-77.5 113q-104 -160 -276 -160q-166 0 -256 104.5t-90 278.5q0 195 119 322q119 131 305 131 q78 0 139 -35t90 -94l29 114h110l-49 -542q-2 -23 -3 -34t-1 -13q0 -117 113 -117q104 0 156.5 103.5t52.5 281.5q0 303 -161 469t-460 166q-125 0 -244.5 -49.5t-213 -143.5t-150.5 -231t-57 -316q0 -324 186 -510q186 -184 477 -184q68 0 129.5 7.5t120.5 23.5t121.5 43 t132.5 67l45 -102q-158 -84 -279 -119t-270 -35q-348 0 -571 218q-225 219 -226 591zM598 598q0 -129 60.5 -195.5t164.5 -66.5q123 0 195 102q74 100 74 242q0 123 -58 192.5t-162 69.5q-61 0 -112 -26.5t-87 -72.5t-55.5 -108.5t-19.5 -136.5z" />
<glyph unicode="A" d="M20 0l519 1434h118l519 -1434h-140l-143 408h-590l-143 -408h-140zM346 535h504l-252 714z" />
<glyph unicode="B" horiz-adv-x="1261" d="M207 0v1434h461q190 0 294.5 -97.5t104.5 -271.5q0 -94 -53 -171t-127 -110q113 -41 183.5 -132t70.5 -238q0 -94 -31 -171t-88 -130.5t-139 -83t-183 -29.5h-493zM342 127h332q162 0 243.5 66.5t81.5 220.5t-81.5 220t-243.5 66h-332v-573zM342 827h326q260 0 260 240 t-260 240h-326v-480z" />
<glyph unicode="C" horiz-adv-x="1392" d="M121 717q0 180 52 323.5t144 229.5q92 88 203 134t234 46q205 0 345 -108.5t195 -301.5l-133 -39q-41 154 -144.5 238t-262.5 84q-221 0 -357 -160q-135 -160 -135 -446q0 -287 135 -447q134 -159 354 -159h3q160 0 263 84t144 237l133 -39q-55 -193 -195.5 -301 t-344.5 -108q-262 0 -449 190q-184 190 -184 543z" />
<glyph unicode="D" horiz-adv-x="1355" d="M207 0v1434h377q283 0 467 -195t184 -522q0 -332 -184 -524q-184 -193 -467 -193h-377zM342 127h244q217 0 360 149q147 150 148 441q0 289 -148 440q-143 150 -360 150h-244v-1180z" />
<glyph unicode="E" horiz-adv-x="1163" d="M207 0v1434h809v-127h-674v-480h551v-127h-551v-573h694v-127h-829z" />
<glyph unicode="F" horiz-adv-x="1153" d="M207 0v1434h823v-127h-688v-496h565v-127h-565v-684h-135z" />
<glyph unicode="G" horiz-adv-x="1449" d="M121 717q0 346 184 540q184 193 445 193q211 0 355 -110.5t198 -307.5l-134 -37q-49 160 -156.5 244t-262.5 84q-219 0 -355 -160q-133 -162 -133 -446q0 -285 133 -447q134 -159 352 -159h3q205 0 314.5 122.5t111.5 362.5h-332v127h467v-723h-119l-16 221 q-57 -111 -171 -174t-255 -63q-260 0 -445 192q-184 193 -184 541z" />
<glyph unicode="H" horiz-adv-x="1413" d="M207 0v1434h135v-609h729v609h135v-1434h-135v698h-729v-698h-135z" />
<glyph unicode="I" horiz-adv-x="548" d="M207 0v1434h135v-1434h-135z" />
<glyph unicode="J" horiz-adv-x="1017" d="M31 350l139 31q18 -129 83.5 -199.5t182.5 -70.5q119 0 194 73.5t75 221.5v1028h135v-1014q0 -205 -119 -322q-118 -114 -282 -114h-3q-182 0 -282 104q-102 109 -123 262z" />
<glyph unicode="K" horiz-adv-x="1157" d="M207 0v1434h135v-613l559 613h172l-588 -643l639 -791h-166l-616 760v-760h-135z" />
<glyph unicode="L" horiz-adv-x="1054" d="M207 0v1434h135v-1307h672v-127h-807z" />
<glyph unicode="M" horiz-adv-x="1601" d="M207 0v1434h168l426 -1080l426 1080h168v-1434h-135v1171l-416 -1040h-86l-416 1040v-1171h-135z" />
<glyph unicode="N" horiz-adv-x="1419" d="M207 0v1434h160l710 -1219v1219h135v-1434h-159l-711 1214v-1214h-135z" />
<glyph unicode="O" horiz-adv-x="1499" d="M121 717q0 329 182 530q184 203 447 203q262 0 444 -203q184 -201 184 -530q0 -330 -184 -533q-181 -200 -441 -200h-3q-262 0 -447 200q-182 205 -182 533zM262 717q0 -291 137 -449q138 -157 348 -157h3q209 0 348 157q139 162 139 449q0 288 -139 446 q-139 160 -348 160q-213 0 -351 -160q-137 -156 -137 -446z" />
<glyph unicode="P" horiz-adv-x="1183" d="M207 0v1434h487q193 0 303.5 -104.5t110.5 -291.5q0 -186 -110.5 -290.5t-303.5 -104.5h-352v-643h-135zM342 770h354q141 0 206 72.5t65 195.5t-64.5 196t-206.5 73h-354v-537z" />
<glyph unicode="Q" horiz-adv-x="1499" d="M121 717q0 330 182 530q184 203 447 203q262 0 444 -203q184 -200 184 -530q0 -307 -161 -506l137 -135l-92 -92l-136 135q-164 -135 -376 -135q-262 0 -447 200q-182 205 -182 533zM262 717q0 -291 137 -449q138 -157 348 -157h3q166 0 286 96l-151 153l92 93l147 -150 q113 162 113 414q0 289 -139 446q-139 160 -348 160q-213 0 -351 -160q-137 -156 -137 -446z" />
<glyph unicode="R" horiz-adv-x="1302" d="M207 0v1434h461q197 0 303 -91.5t106 -271.5q0 -156 -82 -246t-231 -110l446 -715h-151l-449 709h-268v-709h-135zM342 836h317q281 0 281 235q0 236 -281 236h-317v-471z" />
<glyph unicode="S" horiz-adv-x="1036" d="M86 371l117 69q43 -154 114.5 -241.5t206.5 -87.5q123 0 196 73.5t73 214.5q0 98 -63.5 166t-156.5 111q-66 31 -136 65.5t-129.5 82.5t-97.5 115q-36 64 -36 150v9q0 154 96 254q98 98 238 98q100 0 168 -33q37 -16 61.5 -33.5t44 -40t37 -50t37.5 -64.5l-111 -70 q-86 164 -237 164q-47 0 -84 -17.5t-62.5 -46t-39 -66.5t-13.5 -79q0 -96 64.5 -160.5t156.5 -107.5q47 -20 92.5 -43t90.5 -45q92 -45 156.5 -134t64.5 -221q0 -193 -117 -305q-114 -114 -290 -114h-3q-174 0 -287.5 106.5t-150.5 280.5z" />
<glyph unicode="T" horiz-adv-x="1056" d="M33 1307v127h991v-127h-428v-1307h-135v1307h-428z" />
<glyph unicode="U" horiz-adv-x="1339" d="M178 459v975h135v-988q0 -72 23.5 -133t69 -106t112 -70.5t152.5 -25.5t152.5 25.5t111.5 70.5t68.5 106.5t23.5 132.5v988h135v-975q0 -225 -143 -350q-139 -125 -348 -125q-207 0 -351 125q-141 125 -141 350z" />
<glyph unicode="V" horiz-adv-x="1175" d="M14 1434h140l434 -1241l434 1241h139l-502 -1434h-143z" />
<glyph unicode="W" horiz-adv-x="1841" d="M66 1434h139l325 -1225l330 1073h121l330 -1073l325 1225h140l-394 -1434h-137l-325 1073l-324 -1073h-137z" />
<glyph unicode="X" horiz-adv-x="1159" d="M43 0l467 791l-379 643h141l308 -523l307 523h141l-379 -643l467 -791h-141l-395 672l-396 -672h-141z" />
<glyph unicode="Y" horiz-adv-x="1024" d="M12 1434h158l342 -678l342 678h158l-432 -811v-623h-136v623z" />
<glyph unicode="Z" horiz-adv-x="1122" d="M98 0v66l721 1241h-696v127h876v-66l-712 -1241h727v-127h-916z" />
<glyph unicode="[" horiz-adv-x="659" d="M207 -102v1638h366v-115h-243v-1409h243v-114h-366z" />
<glyph unicode="\" horiz-adv-x="1079" d="M16 1536h136l892 -1638h-135z" />
<glyph unicode="]" horiz-adv-x="659" d="M86 12h244v1409h-244v115h367v-1638h-367v114z" />
<glyph unicode="^" horiz-adv-x="1064" d="M106 879l377 555h99l376 -555h-141l-285 436l-284 -436h-142z" />
<glyph unicode="_" horiz-adv-x="972" d="M68 0h837v-115h-837v115z" />
<glyph unicode="`" horiz-adv-x="428" d="M43 1434h190l144 -287h-101z" />
<glyph unicode="a" horiz-adv-x="1036" d="M117 297q0 168 126 253t349 85h172v45q0 129 -63.5 189.5t-174.5 60.5q-188 0 -245 -193l-123 29q10 63 41.5 115.5t81 89.5t112 57.5t133.5 20.5q158 0 260 -99q104 -96 105 -266v-684h-96l-31 160q-102 -176 -326 -176q-141 0 -231 76.5t-90 236.5zM250 297 q0 -94 53 -144.5t148 -50.5q119 0 215 93q98 92 98 282v39h-168q-174 0 -260 -57.5t-86 -161.5z" />
<glyph unicode="b" horiz-adv-x="1224" d="M197 0v1450h131v-563q27 37 64.5 66.5t80.5 51t88 33t88 11.5q217 0 338 -152q123 -152 123 -381q0 -233 -123 -383q-118 -149 -335 -149h-3q-49 0 -97 12t-91 32.5t-78 48t-55 58.5v-135h-131zM311 516q0 -92 21.5 -168t64.5 -130t104.5 -85t141.5 -31t142.5 31 t104.5 85t64.5 130t22.5 168q0 182 -88 297q-90 117 -246 117q-158 0 -246 -117q-86 -117 -86 -297z" />
<glyph unicode="c" horiz-adv-x="1081" d="M115 516q0 217 121 375t335 158q309 0 416 -285l-115 -45q-86 211 -301 211q-160 0 -241 -119q-82 -115 -82 -295q0 -178 82 -297q82 -117 241 -117q215 0 301 211l115 -45q-106 -284 -414 -284h-2q-217 0 -335 155q-121 158 -121 377z" />
<glyph unicode="d" horiz-adv-x="1224" d="M115 516q0 229 121 381q123 152 339 152q43 0 88.5 -11.5t88.5 -33t79.5 -51t65.5 -66.5v563h131v-1450h-131v135q-20 -31 -55 -58.5t-78 -48t-91 -32.5t-98 -12q-217 0 -339 149q-121 152 -121 383zM248 516q0 -92 22.5 -168t64.5 -130t104.5 -85t142.5 -31t141 31 t104 85t64.5 130t21.5 168q0 182 -88 297q-86 117 -243 117q-158 0 -246 -117q-88 -115 -88 -297z" />
<glyph unicode="e" horiz-adv-x="1130" d="M115 516q0 229 127 381t331 152q201 0 326 -131q127 -133 127 -345v-57h-778q0 -92 22.5 -168t64.5 -131t102.5 -85t135.5 -30q117 0 189 51.5t129 170.5l113 -56q-78 -154 -180.5 -219t-250.5 -65q-207 0 -331 149q-127 152 -127 383zM256 635h639q-18 137 -101.5 216 t-220.5 79q-125 0 -207.5 -82t-109.5 -213z" />
<glyph unicode="f" horiz-adv-x="735" d="M102 913v119h164v66q0 352 320 352q76 0 123 -27l-27 -116q-51 24 -103 24h-4q-182 0 -182 -213v-86h250v-119h-250v-913h-127v913h-164z" />
<glyph unicode="g" horiz-adv-x="1005" d="M113 -94q0 137 106 217q-82 49 -82 168q0 61 35 109.5t92 74.5q-78 96 -78 227q0 156 101 250q102 96 250 97q94 0 178 -48l184 105l59 -109l-143 -79q72 -94 72 -216q0 -158 -101 -251q-100 -94 -249 -95q-111 0 -193 50q-84 -37 -84 -115q0 -98 127 -98h266 q141 0 225.5 -67t84.5 -204q0 -182 -116 -269t-308 -87q-199 0 -312.5 90t-113.5 250zM236 -98q0 -104 76.5 -162.5t226.5 -58.5q147 0 224 62t77 163q0 176 -201 176h-211q-55 0 -100 6q-92 -59 -92 -186zM313 702q0 -109 64 -172q63 -63 160 -63q94 0 157 63q66 66 66 172 t-66 172q-63 63 -157 64q-97 -1 -160 -64t-64 -172z" />
<glyph unicode="h" horiz-adv-x="1198" d="M197 0v1450h127v-643q51 119 153.5 180.5t214.5 61.5q154 0 238 -89.5t84 -250.5v-709h-127v692q0 113 -55.5 175.5t-159.5 62.5q-147 0 -248 -135q-100 -133 -100 -355v-440h-127z" />
<glyph unicode="i" horiz-adv-x="573" d="M184 1329q0 45 29 74q31 31 76 31t73 -31q31 -29 31 -74t-31 -76q-29 -29 -73.5 -29t-75.5 29q-29 31 -29 76zM225 0v1032h127v-1032h-127z" />
<glyph unicode="j" horiz-adv-x="573" d="M68 -315q84 25 120.5 68.5t36.5 133.5v1145h127v-1163q0 -262 -256 -303zM184 1329q0 45 29 74q31 31 76 31t73 -31q31 -29 31 -74t-31 -76q-29 -29 -73.5 -29t-75.5 29q-29 31 -29 76z" />
<glyph unicode="k" horiz-adv-x="987" d="M197 0v1450h127v-875l432 457h159l-446 -473l483 -559h-161l-467 543v-543h-127z" />
<glyph unicode="l" horiz-adv-x="499" d="M193 0v1450h126v-1450h-126z" />
<glyph unicode="m" horiz-adv-x="1744" d="M197 0v1032h127v-215q49 106 133 169t194 63q236 0 281 -230q53 100 143 165t195 65q150 0 220.5 -83t70.5 -257v-709h-127v692q0 123 -40 180.5t-145 57.5q-131 0 -219 -131t-88 -346v-453h-127v692q0 123 -40 180.5t-144 57.5q-131 0 -219 -131t-88 -346v-453h-127z " />
<glyph unicode="n" horiz-adv-x="1179" d="M197 0v1032h127v-215q53 104 148 168t206 64q147 0 232 -89.5t85 -250.5v-709h-127v692q0 238 -211 238q-145 0 -239 -131t-94 -346v-453h-127z" />
<glyph unicode="o" d="M115 516q0 211 133 373q131 160 350 160q217 0 350 -160q133 -162 133 -373t-133 -373q-132 -159 -347 -159h-2.5h-3.5q-217 0 -347 159q-133 162 -133 373zM248 516q0 -168 92 -291q94 -123 258 -123t256 123q94 121 94 291t-94 291q-92 123 -256 123t-258 -123 q-92 -123 -92 -291z" />
<glyph unicode="p" horiz-adv-x="1224" d="M197 -418v1450h131v-135q20 31 55 58.5t78 48t91 33t97 12.5q217 0 338 -152q123 -152 123 -381q0 -233 -123 -383q-118 -149 -335 -149h-3q-43 0 -88 11t-88 32.5t-81 51.5t-64 66v-563h-131zM311 516q0 -180 86 -297q88 -117 246 -117q156 0 246 117q88 115 88 297 q0 92 -22.5 168t-64.5 130t-104.5 85t-142.5 31t-141.5 -31t-104.5 -85t-64.5 -130t-21.5 -168z" />
<glyph unicode="q" horiz-adv-x="1224" d="M115 516q0 229 121 381q123 152 339 152q49 0 97.5 -12.5t91.5 -33t78 -48t55 -58.5v135h131v-1450h-131v563q-29 -37 -65.5 -66.5t-79.5 -51t-88.5 -32.5t-88.5 -11q-217 0 -339 149q-121 152 -121 383zM248 516q0 -182 88 -297q88 -117 246 -117t243 117q88 115 88 297 q0 92 -21.5 168t-64.5 130t-104 85t-141 31t-142.5 -31t-104.5 -85t-64.5 -130t-22.5 -168z" />
<glyph unicode="r" horiz-adv-x="817" d="M197 0v1032h127v-184q96 201 303 201q68 0 155 -35l-28 -121q-68 37 -146 37q-125 0 -204.5 -137.5t-79.5 -393.5v-399h-127z" />
<glyph unicode="s" horiz-adv-x="921" d="M111 266l112 60q39 -106 97.5 -165t162.5 -59q92 0 139.5 49.5t47.5 135.5q0 63 -50.5 108t-121.5 72q-53 20 -108.5 44t-101.5 57.5t-76 82.5t-30 121q0 61 21.5 112.5t60.5 87.5t92.5 56.5t114.5 20.5q172 0 287 -160l-90 -78q-88 119 -203 119q-68 0 -110 -43 t-42 -113q0 -57 50.5 -99t121.5 -71q51 -20 107.5 -44.5t103.5 -58.5t77 -81t30 -113q0 -150 -86 -236.5t-234 -86.5q-76 0 -137 22.5t-107 60t-78 89t-50 110.5z" />
<glyph unicode="t" horiz-adv-x="759" d="M55 913v119h183v334l131 84v-418h274v-119h-274v-641q0 -170 143 -170q78 0 129 33l35 -115q-66 -36 -174 -36h-6q-119 0 -188.5 76.5t-69.5 232.5v620h-183z" />
<glyph unicode="u" horiz-adv-x="1179" d="M184 324v708h127v-692q0 -238 211 -238q143 0 238 131q96 133 96 347v452h127v-1032h-127v215q-53 -104 -148.5 -167.5t-205.5 -63.5q-147 0 -232.5 89t-85.5 251z" />
<glyph unicode="v" horiz-adv-x="917" d="M41 1032h133l285 -862l284 862h134l-349 -1032h-139z" />
<glyph unicode="w" horiz-adv-x="1470" d="M80 1032h133l242 -852l217 852h127l217 -852l241 852h134l-310 -1032h-131l-215 844l-215 -844h-131z" />
<glyph unicode="x" horiz-adv-x="913" d="M39 0l348 563l-291 469h142l219 -356l219 356h141l-291 -469l348 -563h-133l-284 451l-285 -451h-133z" />
<glyph unicode="y" horiz-adv-x="925" d="M35 1032h133l307 -835l287 835h133l-512 -1450h-127l150 424z" />
<glyph unicode="z" horiz-adv-x="933" d="M115 0v61l526 852h-502v119h670v-69l-520 -844h542v-119h-716z" />
<glyph unicode="{" horiz-adv-x="649" d="M133 659v115q88 0 125 41t37 133v375q0 98 53 155.5t139 57.5h95v-115h-62q-102 0 -102 -102v-404q0 -88 -32 -131t-97 -67q66 -25 97.5 -68t31.5 -131v-403q0 -102 102 -103h62v-114h-95q-86 0 -139 57t-53 156v374q0 92 -37 133t-125 41z" />
<glyph unicode="|" horiz-adv-x="536" d="M207 -102v1638h123v-1638h-123z" />
<glyph unicode="}" horiz-adv-x="649" d="M68 12h61q102 0 102 103v403q0 88 32 131t97 68q-66 25 -97.5 67.5t-31.5 130.5v404q0 102 -102 102h-61v115h94q86 0 139 -57.5t53 -155.5v-375q0 -92 37 -133t125 -41v-115q-88 0 -125 -40.5t-37 -133.5v-374q0 -98 -53 -155.5t-139 -57.5h-94v114z" />
<glyph unicode="~" horiz-adv-x="1232" d="M174 655q113 160 250 160q78 0 186 -55q106 -55 183 -55q106 0 184 92l82 -80q-115 -160 -250 -160q-80 0 -186 55q-109 55 -183 56q-109 0 -184 -93z" />
<glyph unicode="&#xa1;" horiz-adv-x="665" d="M215 903q0 49 31 80q33 33 82 33t80 -33q33 -31 32.5 -80t-32.5 -82q-31 -31 -80 -31t-82 31q-31 33 -31 82zM242 -422l45 1057h82l45 -1057h-172z" />
<glyph unicode="&#xa2;" horiz-adv-x="1122" d="M125 717q0 203 104 354q104 156 295 176v289h123v-289q252 -29 350 -282l-114 -45q-86 211 -301 210q-160 0 -242 -118q-82 -115 -82 -295q0 -178 82 -297q82 -117 242 -117q215 0 301 211l114 -45q-96 -252 -350 -283v-288h-123v288q-188 20 -295 174q-104 154 -104 357 z" />
<glyph unicode="&#xa3;" horiz-adv-x="1085" d="M98 96q225 219 226 434q0 78 -27 156h-172v119h129q-51 129 -51 233q0 96 26.5 172t75.5 129.5t119 82t156 28.5q135 0 231 -77t147 -212l-112 -51q-51 113 -111.5 167t-154.5 54q-111 0 -178.5 -76.5t-67.5 -218.5q0 -86 47 -231h336v-119h-299q20 -80 20 -160 q0 -98 -49 -209q-47 -111 -115 -170q82 45 175 46q72 0 157 -50q86 -49 125 -49q33 0 59.5 7.5t49 26.5t46 53t52.5 85l96 -55q-66 -125 -133 -176t-166 -51q-80 0 -170 47t-145 47q-68 0 -115 -22.5t-106 -71.5z" />
<glyph unicode="&#xa4;" horiz-adv-x="1118" d="M59 242l179 137q-78 113 -78 250t78 250l-179 137l113 112l135 -174q106 88 252 88q145 0 252 -88l135 174l113 -112l-178 -137q78 -113 77 -250q0 -137 -77 -250l178 -137l-113 -113l-135 174q-106 -88 -252 -88q-145 0 -252 88l-135 -174zM274 629q0 -135 78 -219 t207 -84t207 84t78 219t-78 219t-207 84t-207 -84t-78 -219z" />
<glyph unicode="&#xa5;" horiz-adv-x="1024" d="M27 1434h157l328 -674l328 674h157l-358 -697h270v-114h-329v-179h329v-114h-329v-330h-136v330h-329v114h329v179h-329v114h270z" />
<glyph unicode="&#xa6;" horiz-adv-x="536" d="M207 -102v714h123v-714h-123zM207 821v715h123v-715h-123z" />
<glyph unicode="&#xa7;" horiz-adv-x="1095" d="M139 582q0 160 166 264q-100 100 -100 233q0 172 100 271q100 100 246 100q299 0 371 -299l-115 -39q-66 219 -256 219q-94 0 -154.5 -64.5t-60.5 -183.5q0 -49 19.5 -88t64.5 -73q45 -35 86 -56q20 -10 50 -26.5t71 -36.5q80 -41 129 -68q111 -61 159 -128t48 -173 q0 -160 -166 -264q100 -100 100 -233q0 -172 -102 -271q-100 -100 -244 -100q-299 0 -371 299l115 39q66 -219 256 -219q94 0 154.5 64.5t60.5 182.5q0 49 -19.5 88t-64.5 72q-23 16 -44.5 31.5t-41.5 26.5l-121 61q-41 20 -72.5 37.5t-56.5 32.5q-111 61 -159 127.5 t-48 173.5zM262 580q0 -49 26.5 -87t78.5 -75q29 -18 51 -32.5t61 -35.5l66 -31l149 -71q145 72 146 188q0 94 -105 160q-29 20 -51 34.5t-61 33.5l-66 32l-149 72q-145 -72 -146 -188z" />
<glyph unicode="&#xa8;" horiz-adv-x="602" d="M43 1331q0 43 28.5 73t71.5 30t72 -30t29 -73q0 -41 -29 -69.5t-72 -28.5t-71.5 28.5t-28.5 69.5zM358 1331q0 43 29 73t70 30q43 0 72.5 -30t29.5 -73q0 -41 -29.5 -69.5t-72.5 -28.5q-41 0 -70 28.5t-29 69.5z" />
<glyph unicode="&#xa9;" horiz-adv-x="1847" d="M154 717q0 344 217 569q217 229 553 230q334 0 551 -230q219 -229 219 -569t-219 -572q-219 -227 -551 -227q-336 0 -553 227q-217 229 -217 572zM281 717q0 -287 178 -479q178 -193 465 -193t465 193t178 479q0 285 -178 479q-178 193 -465 193t-465 -193 q-178 -195 -178 -479zM524 717q0 215 123 330q125 113 277 112q129 0 219 -70.5t123 -199.5l-109 -29q-61 188 -233 189q-123 0 -201 -85t-78 -247t78 -247t201 -85q172 0 233 188l109 -28q-33 -129 -123 -200t-219 -71q-152 0 -277 113q-123 113 -123 330z" />
<glyph unicode="&#xaa;" horiz-adv-x="880" d="M135 852q0 131 97.5 198.5t275.5 67.5h135v35q0 190 -186 190q-145 0 -191 -147l-98 25q20 104 99 162.5t190 58.5q131 0 208.5 -68.5t77.5 -218.5v-541h-75l-21 129q-80 -137 -260 -137q-111 0 -181.5 63.5t-70.5 182.5zM250 852q0 -74 40 -110.5t107 -36.5q94 0 170 69 q76 70 76 219v31h-131q-262 0 -262 -172z" />
<glyph unicode="&#xab;" horiz-adv-x="1236" d="M102 592v86l539 399v-139l-405 -303l405 -303v-139zM575 592v86l539 399v-139l-405 -303l405 -303v-139z" />
<glyph unicode="&#xac;" horiz-adv-x="1173" d="M143 659v119h867v-487h-131v368h-736z" />
<glyph unicode="&#xad;" horiz-adv-x="964" d="M145 592v115h674v-115h-674z" />
<glyph unicode="&#xae;" horiz-adv-x="1847" d="M154 717q0 344 217 569q217 229 553 230q334 0 551 -230q219 -229 219 -569t-219 -572q-219 -227 -551 -227q-336 0 -553 227q-217 229 -217 572zM281 717q0 -287 178 -479q178 -193 465 -193t465 193t178 479q0 285 -178 479q-178 193 -465 193t-465 -193 q-178 -195 -178 -479zM645 281v872h295q125 0 198.5 -68.5t73.5 -181.5q0 -92 -55 -158.5t-141 -82.5l260 -381h-127l-258 372h-125v-372h-121zM766 764h174q74 0 113 37t39 102q0 139 -152 139h-174v-278z" />
<glyph unicode="&#xaf;" horiz-adv-x="555" d="M31 1319v115h493v-115h-493z" />
<glyph unicode="&#xb0;" horiz-adv-x="720" d="M137 1214q0 96 62 162q66 66 161 66q98 0 160 -66q63 -63 64 -162q0 -100 -64 -163q-61 -63 -160 -64q-98 1 -161 64q-61 63 -62 163zM236 1214.5q0 -26.5 8 -51t26 -43.5q35 -35 90.5 -35t90.5 35q18 18 26 43t8 51.5t-8 50t-26 42.5q-35 37 -90.5 37t-90.5 -37 q-18 -18 -26 -42t-8 -50.5z" />
<glyph unicode="&#xb1;" horiz-adv-x="1107" d="M135 0v115h840v-115h-840zM135 758v114h363v361h114v-361h363v-114h-363v-363h-114v363h-363z" />
<glyph unicode="&#xb2;" horiz-adv-x="780" d="M133 614v39l301 375q82 100 82 184q0 59 -32.5 93t-94.5 34q-55 0 -89 -43t-42 -112l-111 28q10 100 76 165t166 65q111 0 174.5 -62.5t63.5 -167.5q0 -115 -80 -215l-228 -280h328v-103h-514z" />
<glyph unicode="&#xb3;" horiz-adv-x="788" d="M133 846l111 16q8 -72 47 -114.5t106 -42.5q74 0 111 48t37 124t-37 120.5t-111 44.5q-39 0 -71 -20l-54 72l183 241h-277v99h436v-35l-204 -277q16 4 36 4q92 0 150.5 -66.5t58.5 -182.5q0 -117 -66.5 -194t-191.5 -77q-111 0 -182.5 63.5t-81.5 176.5z" />
<glyph unicode="&#xb4;" horiz-adv-x="428" d="M51 1147l144 287h190l-233 -287h-101z" />
<glyph unicode="&#xb5;" horiz-adv-x="1179" d="M184 -418v1450h127v-692q0 -238 211 -238q143 0 238 131q96 133 96 347v452h127v-1032h-127v215q-53 -104 -148.5 -167.5t-205.5 -63.5q-113 0 -191 53v-455h-127z" />
<glyph unicode="&#xb6;" horiz-adv-x="1333" d="M125 1079q0 147 102 250q104 104 252 105h715v-127h-119v-1725h-135v1725h-326v-1725h-135v1143q-145 0 -252 102q-102 106 -102 252z" />
<glyph unicode="&#xb7;" horiz-adv-x="581" d="M186 715q0 45 30 74.5t75 29.5t74.5 -29.5t29.5 -74.5t-29.5 -75t-74.5 -30t-75 29t-30 76z" />
<glyph unicode="&#xb8;" horiz-adv-x="358" d="M23 -375l200 252h113l-166 -315z" />
<glyph unicode="&#xb9;" horiz-adv-x="581" d="M123 1198v115l244 121h32v-820h-102v668z" />
<glyph unicode="&#xba;" horiz-adv-x="1048" d="M145 1024q0 166 105 293q104 125 274 125t275 -125q104 -127 104 -293q0 -168 -104 -293t-275 -125q-170 0 -274 125t-105 293zM256 1024q0 -131 70 -225t198 -94q127 0 197 94q72 96 72 225t-72 225q-70 94 -197 94q-128 0 -198 -94t-70 -225z" />
<glyph unicode="&#xbb;" horiz-adv-x="1236" d="M123 193v139l405 303l-405 303v139l539 -399v-86zM596 193v139l405 303l-405 303v139l539 -399v-86z" />
<glyph unicode="&#xbc;" horiz-adv-x="1617" d="M164 1198v115l244 121h32v-820h-102v668zM195 18l1110 1465l86 -68l-1110 -1464zM877 170v35l331 614h121v-551h107v-98h-107v-170h-102v170h-350zM1018 268h209v400z" />
<glyph unicode="&#xbd;" horiz-adv-x="1755" d="M164 1198v115l244 121h32v-820h-102v668zM195 18l1110 1465l86 -68l-1110 -1464zM1028 0v39l301 375q82 100 82 184q0 59 -32.5 93t-94.5 34q-55 0 -89 -43t-42 -113l-111 29q10 100 76 164.5t166 64.5q111 0 174.5 -62.5t63.5 -166.5q0 -115 -80 -215l-228 -281h328 v-102h-514z" />
<glyph unicode="&#xbe;" horiz-adv-x="1720" d="M133 846l111 16q8 -72 47 -114.5t106 -42.5q74 0 111 48t37 124t-37 120.5t-111 44.5q-39 0 -71 -20l-54 72l183 241h-277v99h436v-35l-204 -277q16 4 36 4q92 0 150.5 -66.5t58.5 -182.5q0 -117 -66.5 -194t-191.5 -77q-111 0 -182.5 63.5t-81.5 176.5zM342 18 l1110 1465l86 -68l-1110 -1464zM969 170v35l331 614h121v-551h107v-98h-107v-170h-102v170h-350zM1110 268h209v400z" />
<glyph unicode="&#xbf;" horiz-adv-x="897" d="M102 -152q0 158 179 254l147 80q72 39 102.5 80t30.5 103q0 57 -32.5 90.5t-90.5 33.5q-61 0 -100 -31.5t-62 -103.5l-102 39q57 215 260 215q106 0 180 -62.5t74 -185.5q0 -164 -180 -262l-168 -92q-106 -57 -107 -151q0 -82 51.5 -128t149.5 -46q178 0 232 208l129 -22 q-25 -143 -120 -224t-255 -81q-141 0 -229.5 78.5t-88.5 207.5zM317 903q0 49 31 80q33 33 82 33t80 -33q33 -31 33 -80t-33 -82q-31 -31 -80 -30.5t-82 30.5q-31 33 -31 82z" />
<glyph unicode="&#xc0;" d="M20 0l519 1434h118l519 -1434h-140l-143 408h-590l-143 -408h-140zM346 535h504l-252 714zM375 1835h190l144 -287h-101z" />
<glyph unicode="&#xc1;" d="M20 0l519 1434h118l519 -1434h-140l-143 408h-590l-143 -408h-140zM346 535h504l-252 714zM483 1548l144 287h190l-233 -287h-101z" />
<glyph unicode="&#xc2;" d="M20 0l519 1434h118l519 -1434h-140l-143 408h-590l-143 -408h-140zM281 1561l294 309h46l294 -309h-147l-170 182l-170 -182h-147zM346 535h504l-252 714z" />
<glyph unicode="&#xc3;" d="M20 0l519 1434h118l519 -1434h-140l-143 408h-590l-143 -408h-140zM254 1679q76 141 203 142q74 0 147 -43q78 -41 121 -41q78 0 137 73l82 -63q-78 -141 -203 -141q-72 0 -149 41q-74 43 -119 43q-80 0 -137 -74zM346 535h504l-252 714z" />
<glyph unicode="&#xc4;" d="M20 0l519 1434h118l519 -1434h-140l-143 408h-590l-143 -408h-140zM340 1733q0 43 28.5 72.5t71.5 29.5t72 -29.5t29 -72.5q0 -41 -29 -70t-72 -29t-71.5 29t-28.5 70zM346 535h504l-252 714zM655 1733q0 43 29 72.5t70 29.5q43 0 72.5 -29.5t29.5 -72.5q0 -41 -29.5 -70 t-72.5 -29q-41 0 -70 29t-29 70z" />
<glyph unicode="&#xc5;" d="M20 0l519 1434h118l519 -1434h-140l-143 408h-590l-143 -408h-140zM346 535h504l-252 714zM406 1739q0 86 56 143t142 57t142.5 -57t56.5 -143q0 -82 -56.5 -137.5t-142.5 -55.5t-142 55.5t-56 137.5zM500 1741q0 -47 29.5 -77t74.5 -30q47 0 76 30t29 77q0 49 -29 79.5 t-76 30.5q-45 0 -74.5 -31.5t-29.5 -78.5z" />
<glyph unicode="&#xc6;" horiz-adv-x="1681" d="M14 0l629 1434h891v-127h-674v-480h551v-127h-551v-573h694v-127h-829v408h-391l-178 -408h-142zM389 535h336v714h-23z" />
<glyph unicode="&#xc7;" horiz-adv-x="1392" d="M121 717q0 180 52 323.5t144 229.5q92 88 203 134t234 46q205 0 345 -108.5t195 -301.5l-133 -39q-41 154 -144.5 238t-262.5 84q-221 0 -357 -160q-135 -160 -135 -446q0 -287 135 -447t357 -159q160 0 263 84t144 237l133 -39q-55 -193 -195.5 -301t-344.5 -108 q-262 0 -449 190q-184 190 -184 543zM557 -375l201 252h112l-165 -315z" />
<glyph unicode="&#xc8;" horiz-adv-x="1163" d="M207 0v1434h809v-127h-674v-480h551v-127h-551v-573h694v-127h-829zM408 1835h190l143 -287h-100z" />
<glyph unicode="&#xc9;" horiz-adv-x="1163" d="M207 0v1434h809v-127h-674v-480h551v-127h-551v-573h694v-127h-829zM504 1548l143 287h191l-234 -287h-100z" />
<glyph unicode="&#xca;" horiz-adv-x="1163" d="M207 0v1434h809v-127h-674v-480h551v-127h-551v-573h694v-127h-829zM293 1561l295 309h45l295 -309h-148l-170 182l-170 -182h-147z" />
<glyph unicode="&#xcb;" horiz-adv-x="1163" d="M207 0v1434h809v-127h-674v-480h551v-127h-551v-573h694v-127h-829zM375 1733q0 43 28.5 72.5t71.5 29.5t71.5 -29.5t28.5 -72.5q0 -41 -28.5 -70t-71.5 -29t-71.5 29t-28.5 70zM690 1733q0 43 29 72.5t69 29.5q43 0 73 -29.5t30 -72.5q0 -41 -30 -70t-73 -29 q-41 0 -69.5 29t-28.5 70z" />
<glyph unicode="&#xcc;" horiz-adv-x="548" d="M51 1835h191l143 -287h-100zM207 0v1434h135v-1434h-135z" />
<glyph unicode="&#xcd;" horiz-adv-x="548" d="M174 1548l143 287h191l-234 -287h-100zM207 0v1434h135v-1434h-135z" />
<glyph unicode="&#xce;" horiz-adv-x="548" d="M-43 1561l295 309h45l295 -309h-148l-170 182l-170 -182h-147zM207 0v1434h135v-1434h-135z" />
<glyph unicode="&#xcf;" horiz-adv-x="548" d="M16 1733q0 43 29 72.5t72 29.5t71.5 -29.5t28.5 -72.5q0 -41 -28.5 -70t-71.5 -29t-72 29t-29 70zM207 0v1434h135v-1434h-135zM332 1733q0 43 28.5 72.5t69.5 29.5q43 0 72.5 -29.5t29.5 -72.5q0 -41 -29.5 -70t-72.5 -29q-41 0 -69.5 29t-28.5 70z" />
<glyph unicode="&#xd0;" horiz-adv-x="1406" d="M86 653v127h172v654h377q283 0 467 -195t184 -522q0 -332 -184 -524q-184 -193 -467 -193h-377v653h-172zM393 127h244q217 0 360 149q147 150 148 441q0 289 -148 440q-143 150 -360 150h-244v-527h172v-127h-172v-526z" />
<glyph unicode="&#xd1;" horiz-adv-x="1419" d="M207 0v1434h160l710 -1219v1219h135v-1434h-159l-711 1214v-1214h-135zM354 1679q76 141 203 142q74 0 148 -43q78 -41 120 -41q78 0 138 73l81 -63q-78 -141 -202 -141q-72 0 -150 41q-74 43 -119 43q-80 0 -137 -74z" />
<glyph unicode="&#xd2;" horiz-adv-x="1499" d="M121 717q0 329 182 530q184 203 447 203q262 0 444 -203q184 -201 184 -530q0 -330 -184 -533q-182 -201 -444 -200q-262 0 -447 200q-182 205 -182 533zM262 717q0 -291 137 -449q139 -158 351 -157q209 0 348 157q139 162 139 449q0 288 -139 446q-139 160 -348 160 q-213 0 -351 -160q-137 -156 -137 -446zM506 1835h190l144 -287h-101z" />
<glyph unicode="&#xd3;" horiz-adv-x="1499" d="M121 717q0 329 182 530q184 203 447 203q262 0 444 -203q184 -201 184 -530q0 -330 -184 -533q-182 -201 -444 -200q-262 0 -447 200q-182 205 -182 533zM262 717q0 -291 137 -449q139 -158 351 -157q209 0 348 157q139 162 139 449q0 288 -139 446q-139 160 -348 160 q-213 0 -351 -160q-137 -156 -137 -446zM588 1548l143 287h191l-234 -287h-100z" />
<glyph unicode="&#xd4;" horiz-adv-x="1499" d="M121 717q0 329 182 530q184 203 447 203q262 0 444 -203q184 -201 184 -530q0 -330 -184 -533q-182 -201 -444 -200q-262 0 -447 200q-182 205 -182 533zM262 717q0 -291 137 -449q139 -158 351 -157q209 0 348 157q139 162 139 449q0 288 -139 446q-139 160 -348 160 q-213 0 -351 -160q-137 -156 -137 -446zM432 1561l295 309h45l295 -309h-147l-170 182l-170 -182h-148z" />
<glyph unicode="&#xd5;" horiz-adv-x="1499" d="M121 717q0 329 182 530q184 203 447 203q262 0 444 -203q184 -201 184 -530q0 -330 -184 -533q-182 -201 -444 -200q-262 0 -447 200q-182 205 -182 533zM262 717q0 -291 137 -449q139 -158 351 -157q209 0 348 157q139 162 139 449q0 288 -139 446q-139 160 -348 160 q-213 0 -351 -160q-137 -156 -137 -446zM406 1679q76 141 202 142q74 0 148 -43q78 -41 121 -41q78 0 137 73l82 -63q-78 -141 -203 -141q-72 0 -150 41q-74 43 -118 43q-80 0 -138 -74z" />
<glyph unicode="&#xd6;" horiz-adv-x="1499" d="M121 717q0 329 182 530q184 203 447 203q262 0 444 -203q184 -201 184 -530q0 -330 -184 -533q-182 -201 -444 -200q-262 0 -447 200q-182 205 -182 533zM262 717q0 -291 137 -449q139 -158 351 -157q209 0 348 157q139 162 139 449q0 288 -139 446q-139 160 -348 160 q-213 0 -351 -160q-137 -156 -137 -446zM492 1733q0 43 28.5 72.5t71.5 29.5t71.5 -29.5t28.5 -72.5q0 -41 -28.5 -70t-71.5 -29t-71.5 29t-28.5 70zM807 1733q0 43 28.5 72.5t69.5 29.5q43 0 73 -29.5t30 -72.5q0 -41 -30 -70t-73 -29q-41 0 -69.5 29t-28.5 70z" />
<glyph unicode="&#xd7;" horiz-adv-x="1073" d="M141 332l314 315l-314 314l80 81l316 -315l311 313l82 -82l-314 -311l316 -315l-82 -80l-313 313l-316 -313z" />
<glyph unicode="&#xd8;" horiz-adv-x="1499" d="M121 717q0 330 182 530q184 203 447 203q219 0 383 -139l120 155l95 -71l-131 -170q162 -199 161 -508q0 -330 -184 -533q-182 -201 -444 -200q-219 0 -383 139l-121 -156l-94 72l131 170q-162 199 -162 508zM262 717q0 -244 103 -402l690 895q-125 113 -305 113 q-213 0 -351 -160q-137 -156 -137 -446zM444 223q125 -113 306 -112q209 0 348 157q139 162 139 449q0 244 -102 401z" />
<glyph unicode="&#xd9;" horiz-adv-x="1339" d="M178 459v975h135v-988q0 -72 23.5 -133t69 -106t112 -70.5t152.5 -25.5t152.5 25.5t111.5 70.5t68.5 106.5t23.5 132.5v988h135v-975q0 -225 -143 -350q-139 -125 -348 -125q-207 0 -351 125q-141 125 -141 350zM440 1835h191l143 -287h-100z" />
<glyph unicode="&#xda;" horiz-adv-x="1339" d="M178 459v975h135v-988q0 -72 23.5 -133t69 -106t112 -70.5t152.5 -25.5t152.5 25.5t111.5 70.5t68.5 106.5t23.5 132.5v988h135v-975q0 -225 -143 -350q-139 -125 -348 -125q-207 0 -351 125q-141 125 -141 350zM551 1548l143 287h191l-234 -287h-100z" />
<glyph unicode="&#xdb;" horiz-adv-x="1339" d="M178 459v975h135v-988q0 -72 23.5 -133t69 -106t112 -70.5t152.5 -25.5t152.5 25.5t111.5 70.5t68.5 106.5t23.5 132.5v988h135v-975q0 -225 -143 -350q-139 -125 -348 -125q-207 0 -351 125q-141 125 -141 350zM350 1561l295 309h45l295 -309h-147l-170 182l-170 -182 h-148z" />
<glyph unicode="&#xdc;" horiz-adv-x="1339" d="M178 459v975h135v-988q0 -72 23.5 -133t69 -106t112 -70.5t152.5 -25.5t152.5 25.5t111.5 70.5t68.5 106.5t23.5 132.5v988h135v-975q0 -225 -143 -350q-139 -125 -348 -125q-207 0 -351 125q-141 125 -141 350zM412 1733q0 43 28.5 72.5t71.5 29.5t71.5 -29.5 t28.5 -72.5q0 -41 -28.5 -70t-71.5 -29t-71.5 29t-28.5 70zM727 1733q0 43 28.5 72.5t69.5 29.5q43 0 73 -29.5t30 -72.5q0 -41 -30 -70t-73 -29q-41 0 -69.5 29t-28.5 70z" />
<glyph unicode="&#xdd;" horiz-adv-x="1024" d="M12 1434h158l342 -678l342 678h158l-432 -811v-623h-136v623zM385 1548l143 287h191l-234 -287h-100z" />
<glyph unicode="&#xde;" horiz-adv-x="1183" d="M207 0v1434h135v-322h352q193 0 303.5 -104.5t110.5 -290.5t-110.5 -290.5t-303.5 -104.5h-352v-322h-135zM342 449h354q141 0 206 72.5t65 195.5t-64.5 195.5t-206.5 72.5h-354v-536z" />
<glyph unicode="&#xdf;" horiz-adv-x="1140" d="M82 725v115h111v159q0 109 27.5 193t78.5 141.5t119.5 87t152.5 29.5q86 0 156 -26.5t118 -73.5t74.5 -111.5t26.5 -142.5q0 -117 -54 -201t-140 -104q115 -27 202 -125q86 -96 86 -240q0 -104 -30.5 -187t-88 -139.5t-137 -86t-178.5 -29.5q-84 0 -155 14v119 q35 -8 71.5 -11.5t71.5 -3.5q154 0 234.5 82t80.5 230q0 154 -97 232.5t-257 78.5h-66v115h78q123 0 189.5 66.5t66.5 178.5q0 117 -69.5 181.5t-182.5 64.5q-117 0 -182 -84t-65 -250v-997h-131v725h-111z" />
<glyph unicode="&#xe0;" horiz-adv-x="1036" d="M117 297q0 168 126 253t349 85h172v45q0 129 -63.5 189.5t-174.5 60.5q-188 0 -245 -193l-123 29q10 63 41.5 115.5t81 89.5t112 57.5t133.5 20.5q158 0 260 -99q104 -96 105 -266v-684h-96l-31 160q-102 -176 -326 -176q-141 0 -231 76.5t-90 236.5zM250 297 q0 -94 53 -144.5t148 -50.5q119 0 215 93q98 92 98 282v39h-168q-174 0 -260 -57.5t-86 -161.5zM309 1434h191l143 -287h-100z" />
<glyph unicode="&#xe1;" horiz-adv-x="1036" d="M117 297q0 168 126 253t349 85h172v45q0 129 -63.5 189.5t-174.5 60.5q-188 0 -245 -193l-123 29q10 63 41.5 115.5t81 89.5t112 57.5t133.5 20.5q158 0 260 -99q104 -96 105 -266v-684h-96l-31 160q-102 -176 -326 -176q-141 0 -231 76.5t-90 236.5zM250 297 q0 -94 53 -144.5t148 -50.5q119 0 215 93q98 92 98 282v39h-168q-174 0 -260 -57.5t-86 -161.5zM418 1147l143 287h191l-234 -287h-100z" />
<glyph unicode="&#xe2;" horiz-adv-x="1036" d="M117 297q0 168 126 253t349 85h172v45q0 129 -63.5 189.5t-174.5 60.5q-188 0 -245 -193l-123 29q10 63 41.5 115.5t81 89.5t112 57.5t133.5 20.5q158 0 260 -99q104 -96 105 -266v-684h-96l-31 160q-102 -176 -326 -176q-141 0 -231 76.5t-90 236.5zM217 1159l295 309 h45l295 -309h-147l-170 182l-170 -182h-148zM250 297q0 -94 53 -144.5t148 -50.5q119 0 215 93q98 92 98 282v39h-168q-174 0 -260 -57.5t-86 -161.5z" />
<glyph unicode="&#xe3;" horiz-adv-x="1036" d="M117 297q0 168 126 253t349 85h172v45q0 129 -63.5 189.5t-174.5 60.5q-188 0 -245 -193l-123 29q10 63 41.5 115.5t81 89.5t112 57.5t133.5 20.5q158 0 260 -99q104 -96 105 -266v-684h-96l-31 160q-102 -176 -326 -176q-141 0 -231 76.5t-90 236.5zM190 1278 q76 141 203 141q74 0 148 -43q78 -41 121 -41q78 0 137 74l82 -63q-78 -141 -203 -142q-72 0 -150 41q-74 43 -118 43q-80 0 -138 -74zM250 297q0 -94 53 -144.5t148 -50.5q119 0 215 93q98 92 98 282v39h-168q-174 0 -260 -57.5t-86 -161.5z" />
<glyph unicode="&#xe4;" horiz-adv-x="1036" d="M117 297q0 168 126 253t349 85h172v45q0 129 -63.5 189.5t-174.5 60.5q-188 0 -245 -193l-123 29q10 63 41.5 115.5t81 89.5t112 57.5t133.5 20.5q158 0 260 -99q104 -96 105 -266v-684h-96l-31 160q-102 -176 -326 -176q-141 0 -231 76.5t-90 236.5zM250 297 q0 -94 53 -144.5t148 -50.5q119 0 215 93q98 92 98 282v39h-168q-174 0 -260 -57.5t-86 -161.5zM274 1331q0 43 29 73t72 30t71.5 -30t28.5 -73q0 -41 -28.5 -69.5t-71.5 -28.5t-72 28.5t-29 69.5zM590 1331q0 43 28.5 73t69.5 30q43 0 73 -30t30 -73q0 -41 -30 -69.5 t-73 -28.5q-41 0 -69.5 28.5t-28.5 69.5z" />
<glyph unicode="&#xe5;" horiz-adv-x="1036" d="M117 297q0 168 126 253t349 85h172v45q0 129 -63.5 189.5t-174.5 60.5q-188 0 -245 -193l-123 29q10 63 41.5 115.5t81 89.5t112 57.5t133.5 20.5q158 0 260 -99q104 -96 105 -266v-684h-96l-31 160q-102 -176 -326 -176q-141 0 -231 76.5t-90 236.5zM250 297 q0 -94 53 -144.5t148 -50.5q119 0 215 93q98 92 98 282v39h-168q-174 0 -260 -57.5t-86 -161.5zM328 1337q0 86 56 143.5t142 57.5t142.5 -57.5t56.5 -143.5q0 -82 -56.5 -137t-142.5 -55t-142 55t-56 137zM422 1339q0 -47 29.5 -76.5t74.5 -29.5q47 0 76 29.5t29 76.5 q0 49 -29 80t-76 31q-45 0 -74.5 -32t-29.5 -79z" />
<glyph unicode="&#xe6;" horiz-adv-x="1779" d="M117 297q0 168 126 253t349 85h172v45q0 129 -63.5 189.5t-174.5 60.5q-188 0 -245 -193l-123 29q10 63 41.5 115.5t81 89.5t112 57.5t133.5 20.5q117 0 205 -53.5t129 -145.5q129 199 363 199q201 0 325 -131q127 -133 127 -345v-57h-778q0 -92 22.5 -168t64.5 -131 t102.5 -85t136.5 -30q117 0 190.5 51.5t124.5 161.5l115 -47q-78 -154 -180.5 -219t-249.5 -65q-137 0 -244 70.5t-156 189.5q-47 -131 -148.5 -195.5t-236.5 -64.5q-141 0 -231 76.5t-90 236.5zM250 297q0 -94 53 -144.5t148 -50.5q119 0 215 93q98 92 98 282v39h-168 q-174 0 -260 -57.5t-86 -161.5zM905 635h639q-18 137 -101 216t-220 79q-125 0 -208 -82t-110 -213z" />
<glyph unicode="&#xe7;" horiz-adv-x="1081" d="M115 516q0 217 121 375t335 158q309 0 416 -285l-115 -45q-86 211 -301 211q-160 0 -241 -119q-82 -115 -82 -295q0 -178 82 -297q82 -117 241 -117q215 0 301 211l115 -45q-106 -285 -416 -284q-217 0 -335 155q-121 158 -121 377zM377 -375l201 252h112l-166 -315z" />
<glyph unicode="&#xe8;" horiz-adv-x="1130" d="M115 516q0 229 127 381t331 152q201 0 326 -131q127 -133 127 -345v-57h-778q0 -92 22.5 -168t64.5 -131t102.5 -85t135.5 -30q117 0 189 51.5t129 170.5l113 -56q-78 -154 -180.5 -219t-250.5 -65q-207 0 -331 149q-127 152 -127 383zM256 635h639q-18 137 -101.5 216 t-220.5 79q-125 0 -207.5 -82t-109.5 -213zM371 1434h190l144 -287h-101z" />
<glyph unicode="&#xe9;" horiz-adv-x="1130" d="M115 516q0 229 127 381t331 152q201 0 326 -131q127 -133 127 -345v-57h-778q0 -92 22.5 -168t64.5 -131t102.5 -85t135.5 -30q117 0 189 51.5t129 170.5l113 -56q-78 -154 -180.5 -219t-250.5 -65q-207 0 -331 149q-127 152 -127 383zM256 635h639q-18 137 -101.5 216 t-220.5 79q-125 0 -207.5 -82t-109.5 -213zM420 1147l143 287h191l-234 -287h-100z" />
<glyph unicode="&#xea;" horiz-adv-x="1130" d="M115 516q0 229 127 381t331 152q201 0 326 -131q127 -133 127 -345v-57h-778q0 -92 22.5 -168t64.5 -131t102.5 -85t135.5 -30q117 0 189 51.5t129 170.5l113 -56q-78 -154 -180.5 -219t-250.5 -65q-207 0 -331 149q-127 152 -127 383zM256 635h639q-18 137 -101.5 216 t-220.5 79q-125 0 -207.5 -82t-109.5 -213zM256 1159l295 309h45l295 -309h-148l-170 182l-170 -182h-147z" />
<glyph unicode="&#xeb;" horiz-adv-x="1130" d="M115 516q0 229 127 381t331 152q201 0 326 -131q127 -133 127 -345v-57h-778q0 -92 22.5 -168t64.5 -131t102.5 -85t135.5 -30q117 0 189 51.5t129 170.5l113 -56q-78 -154 -180.5 -219t-250.5 -65q-207 0 -331 149q-127 152 -127 383zM256 635h639q-18 137 -101.5 216 t-220.5 79q-125 0 -207.5 -82t-109.5 -213zM328 1331q0 43 28.5 73t71.5 30t71.5 -30t28.5 -73q0 -41 -28.5 -69.5t-71.5 -28.5t-71.5 28.5t-28.5 69.5zM643 1331q0 43 28.5 73t69.5 30q43 0 73 -30t30 -73q0 -41 -30 -69.5t-73 -28.5q-41 0 -69.5 28.5t-28.5 69.5z" />
<glyph unicode="&#xec;" horiz-adv-x="573" d="M55 1434h191l143 -287h-100zM225 0v1032h127v-1032h-127z" />
<glyph unicode="&#xed;" horiz-adv-x="573" d="M199 1147l143 287h190l-233 -287h-100zM225 0v1032h127v-1032h-127z" />
<glyph unicode="&#xee;" horiz-adv-x="573" d="M-31 1159l295 309h45l295 -309h-147l-170 182l-170 -182h-148zM225 0v1032h127v-1032h-127z" />
<glyph unicode="&#xef;" horiz-adv-x="573" d="M33 1331q0 43 28.5 73t71.5 30t71.5 -30t28.5 -73q0 -41 -28.5 -69.5t-71.5 -28.5t-71.5 28.5t-28.5 69.5zM225 0v1032h127v-1032h-127zM348 1331q0 43 29 73t69 30q43 0 73 -30t30 -73q0 -41 -30 -69.5t-73 -28.5q-41 0 -69.5 28.5t-28.5 69.5z" />
<glyph unicode="&#xf0;" horiz-adv-x="1175" d="M115 516q0 215 129 373q129 160 344 160q170 0 278 -117q-55 164 -274 330l-90 -134l-86 62l90 131q-84 51 -166 86l59 88q90 -41 168 -84l78 115l86 -62l-76 -110q211 -143 308.5 -347t97.5 -491q0 -215 -129 -375q-129 -158 -344 -157q-215 0 -344 157 q-129 160 -129 375zM248 516q0 -172 88 -293q90 -121 252 -121t252 121q88 121 88 293t-88 291q-90 123 -252 123q-164 0 -252 -123q-88 -119 -88 -291z" />
<glyph unicode="&#xf1;" horiz-adv-x="1179" d="M197 0v1032h127v-215q53 104 148 168t206 64q147 0 232 -89.5t85 -250.5v-709h-127v692q0 238 -211 238q-145 0 -239 -131t-94 -346v-453h-127zM260 1278q76 141 203 141q74 0 147 -43q78 -41 121 -41q78 0 137 74l82 -63q-78 -141 -202 -142q-72 0 -150 41 q-74 43 -119 43q-80 0 -137 -74z" />
<glyph unicode="&#xf2;" d="M115 516q0 211 133 373q131 160 350 160q217 0 350 -160q133 -162 133 -373t-133 -373q-133 -160 -350 -159q-219 -1 -350 159q-133 162 -133 373zM248 516q0 -168 92 -291q94 -123 258 -123t256 123q94 121 94 291t-94 291q-92 123 -256 123t-258 -123 q-92 -123 -92 -291zM379 1434h190l144 -287h-101z" />
<glyph unicode="&#xf3;" d="M115 516q0 211 133 373q131 160 350 160q217 0 350 -160q133 -162 133 -373t-133 -373q-133 -160 -350 -159q-219 -1 -350 159q-133 162 -133 373zM248 516q0 -168 92 -291q94 -123 258 -123t256 123q94 121 94 291t-94 291q-92 123 -256 123t-258 -123 q-92 -123 -92 -291zM446 1147l144 287h190l-233 -287h-101z" />
<glyph unicode="&#xf4;" d="M115 516q0 211 133 373q131 160 350 160q217 0 350 -160q133 -162 133 -373t-133 -373q-133 -160 -350 -159q-219 -1 -350 159q-133 162 -133 373zM248 516q0 -168 92 -291q94 -123 258 -123t256 123q94 121 94 291t-94 291q-92 123 -256 123t-258 -123 q-92 -123 -92 -291zM281 1159l294 309h46l294 -309h-147l-170 182l-170 -182h-147z" />
<glyph unicode="&#xf5;" d="M115 516q0 211 133 373q131 160 350 160q217 0 350 -160q133 -162 133 -373t-133 -373q-133 -160 -350 -159q-219 -1 -350 159q-133 162 -133 373zM248 516q0 -168 92 -291q94 -123 258 -123t256 123q94 121 94 291t-94 291q-92 123 -256 123t-258 -123 q-92 -123 -92 -291zM254 1278q76 141 203 141q74 0 147 -43q78 -41 121 -41q78 0 137 74l82 -63q-78 -141 -203 -142q-72 0 -149 41q-74 43 -119 43q-80 0 -137 -74z" />
<glyph unicode="&#xf6;" d="M115 516q0 211 133 373q131 160 350 160q217 0 350 -160q133 -162 133 -373t-133 -373q-133 -160 -350 -159q-219 -1 -350 159q-133 162 -133 373zM248 516q0 -168 92 -291q94 -123 258 -123t256 123q94 121 94 291t-94 291q-92 123 -256 123t-258 -123 q-92 -123 -92 -291zM340 1331q0 43 28.5 73t71.5 30t72 -30t29 -73q0 -41 -29 -69.5t-72 -28.5t-71.5 28.5t-28.5 69.5zM655 1331q0 43 29 73t70 30q43 0 72.5 -30t29.5 -73q0 -41 -29.5 -69.5t-72.5 -28.5q-41 0 -70 28.5t-29 69.5z" />
<glyph unicode="&#xf7;" horiz-adv-x="1044" d="M102 592v115h840v-115h-840zM415.5 274.5q0.5 44.5 28.5 73.5q31 31 76 31t74 -31q31 -29 31 -74t-31 -75q-29 -29 -74 -29t-76 29q-29 31 -28.5 75.5zM415.5 1024q0.5 45 28.5 74q31 31 76 30.5t74 -30.5q31 -29 31 -74t-31 -76q-29 -29 -74 -29t-76 29q-29 31 -28.5 76 z" />
<glyph unicode="&#xf8;" d="M115 -2l123 156q-123 149 -123 362q0 211 133 373q131 160 350 160q160 0 274 -88l115 145l94 -72l-123 -155q123 -152 123 -363t-133 -373q-133 -160 -350 -159q-160 0 -274 88l-115 -146zM248 516q0 -154 69 -260l482 608q-88 66 -201 66q-164 0 -258 -123 q-92 -123 -92 -291zM397 168q88 -66 201 -66q164 0 256 123q94 121 94 291q0 154 -69 260z" />
<glyph unicode="&#xf9;" horiz-adv-x="1159" d="M184 324v708h127v-692q0 -238 211 -238q143 0 238 131q96 133 96 347v452h127v-1032h-127v215q-53 -104 -148.5 -167.5t-205.5 -63.5q-147 0 -232.5 89t-85.5 251zM393 1434h191l143 -287h-100z" />
<glyph unicode="&#xfa;" horiz-adv-x="1159" d="M184 324v708h127v-692q0 -238 211 -238q143 0 238 131q96 133 96 347v452h127v-1032h-127v215q-53 -104 -148.5 -167.5t-205.5 -63.5q-147 0 -232.5 89t-85.5 251zM442 1147l144 287h190l-233 -287h-101z" />
<glyph unicode="&#xfb;" horiz-adv-x="1159" d="M184 324v708h127v-692q0 -238 211 -238q143 0 238 131q96 133 96 347v452h127v-1032h-127v215q-53 -104 -148.5 -167.5t-205.5 -63.5q-147 0 -232.5 89t-85.5 251zM270 1159l295 309h45l295 -309h-147l-170 182l-170 -182h-148z" />
<glyph unicode="&#xfc;" horiz-adv-x="1159" d="M184 324v708h127v-692q0 -238 211 -238q143 0 238 131q96 133 96 347v452h127v-1032h-127v215q-53 -104 -148.5 -167.5t-205.5 -63.5q-147 0 -232.5 89t-85.5 251zM334 1331q0 43 28.5 73t71.5 30t72 -30t29 -73q0 -41 -29 -69.5t-72 -28.5t-71.5 28.5t-28.5 69.5z M649 1331q0 43 29 73t70 30q43 0 72.5 -30t29.5 -73q0 -41 -29.5 -69.5t-72.5 -28.5q-41 0 -70 28.5t-29 69.5z" />
<glyph unicode="&#xfd;" horiz-adv-x="925" d="M35 1032h133l307 -835l287 835h133l-512 -1450h-127l150 424zM354 1147l144 287h190l-233 -287h-101z" />
<glyph unicode="&#xfe;" horiz-adv-x="1226" d="M199 -418v1868h131v-563q27 37 64.5 66.5t80.5 51t88 33t88 11.5q217 0 338 -152q123 -152 123 -381q0 -233 -123 -383q-119 -150 -338 -149q-49 0 -97 12t-91 32.5t-78 48t-55 58.5v-553h-131zM313 516q0 -92 21.5 -168t64.5 -130t104.5 -85t141.5 -31t142.5 31 t104.5 85t64.5 130t22.5 168q0 182 -88 297q-90 117 -246 117q-158 0 -246 -117q-86 -117 -86 -297z" />
<glyph unicode="&#xff;" horiz-adv-x="925" d="M35 1032h133l307 -835l287 835h133l-512 -1450h-127l150 424zM217 1331q0 43 28.5 73t71.5 30t72 -30t29 -73q0 -41 -29 -69.5t-72 -28.5t-71.5 28.5t-28.5 69.5zM532 1331q0 43 29 73t70 30q43 0 72.5 -30t29.5 -73q0 -41 -29.5 -69.5t-72.5 -28.5q-41 0 -70 28.5 t-29 69.5z" />
<glyph unicode="&#x131;" horiz-adv-x="573" d="M223 0v1032h127v-1032h-127z" />
<glyph unicode="&#x152;" horiz-adv-x="2199" d="M121 717q0 330 182 530q184 203 447 203q147 0 277 -68.5t216 -193.5v246h809v-127h-674v-480h551v-127h-551v-573h695v-127h-830v246q-86 -125 -216 -193.5t-277 -68.5q-262 0 -447 200q-182 205 -182 533zM262 717q0 -291 137 -449q139 -158 351 -157q209 0 348 157 q139 162 139 449q0 288 -139 446q-139 160 -348 160q-213 0 -351 -160q-137 -156 -137 -446z" />
<glyph unicode="&#x153;" horiz-adv-x="1964" d="M115 516q0 211 133 373q131 160 350 160q137 0 242.5 -67t169.5 -183q57 117 159.5 183.5t237.5 66.5q201 0 326 -131q127 -133 127 -345v-57h-779v-18q2 -90 25.5 -163t65.5 -124t101.5 -80t133.5 -29q117 0 190.5 51.5t124.5 161.5l115 -47q-78 -154 -180.5 -219 t-249.5 -65q-135 0 -237.5 66.5t-159.5 182.5q-63 -117 -169 -183t-243 -66q-219 0 -350 159q-133 162 -133 373zM248 516q0 -168 92 -291q94 -123 258 -123t256 123q94 121 94 291t-94 291q-92 123 -256 123t-258 -123q-92 -123 -92 -291zM1092 635h637q-18 137 -101.5 216 t-220.5 79q-125 0 -207 -82t-108 -213z" />
<glyph unicode="&#x178;" horiz-adv-x="1024" d="M12 1434h158l342 -678l342 678h158l-432 -811v-623h-136v623zM254 1733q0 43 28.5 72.5t71.5 29.5t72 -29.5t29 -72.5q0 -41 -29 -70t-72 -29t-71.5 29t-28.5 70zM569 1733q0 43 29 72.5t70 29.5q43 0 72.5 -29.5t29.5 -72.5q0 -41 -29.5 -70t-72.5 -29q-41 0 -70 29 t-29 70z" />
<glyph unicode="&#x192;" horiz-adv-x="958" d="M-152 -408l50 117q49 -25 102 -24q98 0 149.5 51t73.5 162l197 1015h-184l24 119h184l13 66q35 190 129 271t252 81q80 0 125 -27l-50 -116q-47 25 -102 24q-180 0 -223 -213l-17 -86h250l-24 -119h-250l-193 -995q-37 -193 -127 -272.5t-245 -79.5q-88 0 -134 26z" />
<glyph unicode="&#x2c6;" horiz-adv-x="757" d="M61 1159l295 309h45l295 -309h-147l-170 182l-170 -182h-148z" />
<glyph unicode="&#x2c7;" horiz-adv-x="757" d="M61 1468h148l170 -182l170 182h147l-295 -309h-45z" />
<glyph unicode="&#x2d8;" horiz-adv-x="489" d="M23 1434h104q0 -53 28.5 -87t82.5 -34q111 0 110 121h105q0 -100 -57.5 -162t-157.5 -62q-98 0 -156.5 61.5t-58.5 162.5z" />
<glyph unicode="&#x2d9;" horiz-adv-x="512" d="M151.5 1329q0.5 45 28.5 74q31 31 76 31t74 -31q31 -29 30.5 -74t-30.5 -76q-29 -29 -74 -29t-76 29q-29 31 -28.5 76z" />
<glyph unicode="&#x2da;" horiz-adv-x="479" d="M41 1337q0 86 56.5 143.5t142.5 57.5t142 -57.5t56 -143.5q0 -82 -56 -137t-142 -55t-142.5 55t-56.5 137zM135 1339q0 -47 30 -76.5t75 -29.5q47 0 75.5 29.5t28.5 76.5q0 49 -28.5 80t-75.5 31q-45 0 -75 -32t-30 -79z" />
<glyph unicode="&#x2db;" horiz-adv-x="425" d="M25 -311q0 104 116 188h113q-115 -104 -115 -164q0 -68 68 -67q51 0 117 86l79 -64q-55 -74 -102 -105.5t-115 -31.5q-74 0 -117.5 43t-43.5 115z" />
<glyph unicode="&#x2dc;" horiz-adv-x="772" d="M41 1278q76 141 203 141q74 0 147 -43q78 -41 121 -41q78 0 137 74l82 -63q-78 -141 -203 -142q-72 0 -149 41q-74 43 -119 43q-80 0 -137 -74z" />
<glyph unicode="&#x2dd;" horiz-adv-x="731" d="M51 1147l144 287h190l-233 -287h-101zM362 1147l144 287h190l-233 -287h-101z" />
<glyph unicode="&#x3a9;" horiz-adv-x="1396" d="M164 0v115h282q-6 8 -12 18t-15 27.5t-22.5 46.5t-34.5 74q-20 47 -38.5 91t-34.5 89t-29.5 98t-28.5 113q-27 119 -26 229q0 244 133 395q135 154 360 154t359 -154q135 -152 135 -395q0 -324 -209 -725q-10 -16 -15 -27.5t-10 -19.5q-6 -8 -8 -14h283v-115h-430v39 q6 8 11 19.5t14.5 31t23.5 50t35 79.5q20 49 37.5 98.5t33.5 96.5q16 49 31 107.5t29 125.5q27 131 26 254q0 100 -24.5 181t-70.5 137.5t-109.5 86t-141.5 29.5t-141 -29.5t-109.5 -86t-71 -137.5t-24.5 -181q0 -358 207 -795q8 -16 15.5 -29.5t11.5 -21.5l8 -16v-39h-430z " />
<glyph unicode="&#x3c0;" horiz-adv-x="1214" d="M115 918v114h985v-114h-182v-918h-127v918h-367v-918h-127v918h-182z" />
<glyph unicode="&#x2000;" horiz-adv-x="969" />
<glyph unicode="&#x2001;" horiz-adv-x="1939" />
<glyph unicode="&#x2002;" horiz-adv-x="969" />
<glyph unicode="&#x2003;" horiz-adv-x="1939" />
<glyph unicode="&#x2004;" horiz-adv-x="646" />
<glyph unicode="&#x2005;" horiz-adv-x="484" />
<glyph unicode="&#x2006;" horiz-adv-x="323" />
<glyph unicode="&#x2007;" horiz-adv-x="323" />
<glyph unicode="&#x2008;" horiz-adv-x="242" />
<glyph unicode="&#x2009;" horiz-adv-x="387" />
<glyph unicode="&#x200a;" horiz-adv-x="107" />
<glyph unicode="&#x2010;" horiz-adv-x="964" d="M145 592v115h674v-115h-674z" />
<glyph unicode="&#x2011;" horiz-adv-x="964" d="M145 592v115h674v-115h-674z" />
<glyph unicode="&#x2012;" horiz-adv-x="964" d="M145 592v115h674v-115h-674z" />
<glyph unicode="&#x2013;" horiz-adv-x="1140" d="M147 592v115h838v-115h-838z" />
<glyph unicode="&#x2014;" horiz-adv-x="1560" d="M147 592v115h1258v-115h-1258z" />
<glyph unicode="&#x2018;" horiz-adv-x="563" d="M123 1450h211l125 -377h-101z" />
<glyph unicode="&#x2019;" horiz-adv-x="563" d="M104 1073l125 377h211l-235 -377h-101z" />
<glyph unicode="&#x201a;" horiz-adv-x="563" d="M104 -29l125 377h211l-235 -377h-101z" />
<glyph unicode="&#x201c;" horiz-adv-x="856" d="M123 1450h211l125 -377h-101zM416 1450h211l125 -377h-101z" />
<glyph unicode="&#x201d;" horiz-adv-x="856" d="M104 1073l125 377h211l-235 -377h-101zM397 1073l125 377h211l-235 -377h-101z" />
<glyph unicode="&#x201e;" horiz-adv-x="856" d="M104 -29l125 377h211l-235 -377h-101zM397 -29l125 377h211l-235 -377h-101z" />
<glyph unicode="&#x2020;" horiz-adv-x="942" d="M133 918v114h277v504h122v-504h277v-114h-277v-1020h-122v1020h-277z" />
<glyph unicode="&#x2021;" horiz-adv-x="942" d="M133 401v115h277v402h-277v114h277v504h122v-504h277v-114h-277v-402h277v-115h-277v-503h-122v503h-277z" />
<glyph unicode="&#x2022;" horiz-adv-x="622" d="M178 676q0 55 39 94t94.5 39t94.5 -39t38.5 -94t-38.5 -94q-39 -39 -94.5 -39t-94.5 39t-39 94z" />
<glyph unicode="&#x2026;" horiz-adv-x="1593" d="M186 100q0 45 30 75t75 30t74.5 -30t29.5 -75t-29.5 -74.5t-74.5 -29.5t-75 28.5t-30 75.5zM692 100q0 33 18.5 58.5t46 38t58.5 7.5t55 -30q25 -25 30 -55.5t-7 -58t-38 -46t-58 -18.5q-47 0 -76 28.5t-29 75.5zM1198 100q0 45 29.5 75t75.5 30q45 0 74.5 -30t29.5 -75 t-29.5 -74.5t-74.5 -29.5t-75 28.5t-30 75.5z" />
<glyph unicode="&#x202f;" horiz-adv-x="387" />
<glyph unicode="&#x2030;" horiz-adv-x="2547" d="M127 1122q0 135 90 232q92 96 232 96q139 0 229 -96q92 -96 92 -232q0 -139 -92 -233q-88 -94 -229 -94q-140 0 -232 94q-90 96 -90 233zM238 1122q0 -96 57 -155q57 -61 154 -62q94 0 153 62q57 59 57 155t-57 156q-59 61 -153 61q-97 0 -154 -61q-57 -59 -57 -156z M266 18l1110 1465l86 -68l-1110 -1464zM958 311q0 135 91 232q92 96 231 96t229 -96q92 -96 93 -232q0 -139 -93 -233q-88 -94 -229 -94q-139 0 -231 94q-90 96 -91 233zM1069 311q0 -96 57 -155q57 -61 154 -62q94 0 154 62q57 59 57 155t-57 156q-59 61 -154 61 q-97 0 -154 -61q-57 -59 -57 -156zM1778 311q0 135 90 232q92 96 231 96t230 -96q92 -96 92 -232q0 -139 -92 -233q-88 -94 -230 -94q-139 0 -231 94q-90 96 -90 233zM1888 311q0 -96 58 -155q57 -61 153 -62q94 0 154 62q57 59 57 155t-57 156q-59 61 -154 61 q-96 0 -153 -61q-57 -59 -58 -156z" />
<glyph unicode="&#x2039;" horiz-adv-x="763" d="M102 592v86l539 399v-139l-405 -303l405 -303v-139z" />
<glyph unicode="&#x203a;" horiz-adv-x="763" d="M123 193v139l405 303l-405 303v139l539 -399v-86z" />
<glyph unicode="&#x2044;" horiz-adv-x="1245" d="M25 18l1110 1465l86 -68l-1110 -1464z" />
<glyph unicode="&#x205f;" horiz-adv-x="484" />
<glyph unicode="&#x20ac;" horiz-adv-x="1253" d="M72 510l59 115h102v184h-161l59 115h111q16 119 59 216t110.5 166.5t159 106.5t201.5 37q256 0 391 -238l-112 -61q-86 184 -279 184q-160 0 -263 -106.5t-134 -304.5h528l-59 -115h-479v-184h538l-59 -115h-469q31 -199 134 -305.5t263 -106.5q193 0 279 185l112 -62 q-135 -238 -391 -237q-111 0 -202 36.5t-158.5 106.5t-110.5 166t-59 217h-170z" />
<glyph unicode="&#x2122;" horiz-adv-x="1660" d="M61 1343v91h568v-91h-234v-729h-100v729h-234zM784 614v820h107l242 -578l241 578h107v-820h-101v605l-219 -529h-57l-219 529v-605h-101z" />
<glyph unicode="&#x2202;" horiz-adv-x="1212" d="M102 422q0 258 154 442q156 184 408 185q43 0 85 -9.5t79.5 -25t68.5 -37t49 -45.5q-18 184 -106 291.5t-226 107.5q-168 0 -262 -184l-133 35q55 123 158.5 195.5t251.5 72.5q221 0 336.5 -185.5t115.5 -537.5q0 -203 -61 -369q-31 -82 -79 -150.5t-112.5 -118.5 t-145.5 -77.5t-175 -27.5q-178 0 -293 120q-113 119 -113 318zM238 426q0 -72 19 -131t55 -102t85 -67t111 -24q190 0 309 150q123 150 123 352q0 154 -77 240t-218 86q-186 0 -297 -152t-110 -352z" />
<glyph unicode="&#x2206;" horiz-adv-x="1339" d="M119 0v33l483 1401h135l484 -1401v-33h-1102zM287 119h766l-383 1124z" />
<glyph unicode="&#x220f;" horiz-adv-x="1107" d="M193 0v1434h722v-1434h-127v1319h-469v-1319h-126z" />
<glyph unicode="&#x2211;" horiz-adv-x="1110" d="M123 0v31l440 686l-440 686v31h852v-115h-660l375 -586v-33l-375 -585h660v-115h-852z" />
<glyph unicode="&#x221a;" horiz-adv-x="1130" d="M123 682v115h272l191 -576l372 1229h115l-440 -1450h-96l-222 682h-192z" />
<glyph unicode="&#x221e;" horiz-adv-x="1794" d="M123 735q0 176 100 283q102 109 269 108q225 0 405 -272q180 272 406 272q164 0 266 -108q102 -109 102 -283t-102 -282q-102 -109 -266 -109q-225 0 -406 272q-180 -272 -405 -272q-166 0 -269 109q-100 106 -100 282zM250 735q0 -129 72.5 -202.5t195.5 -73.5 q184 0 324 276q-139 276 -324 277q-123 0 -195.5 -74t-72.5 -203zM952 735q138 -276 324 -276q123 0 195.5 73.5t72.5 202.5t-72.5 203t-195.5 74q-186 0 -324 -277z" />
<glyph unicode="&#x222b;" horiz-adv-x="958" d="M-152 -408l50 117q49 -25 102 -24q98 0 149.5 51t73.5 162l234 1200q37 190 130 271t251 81q80 0 125 -27l-50 -116q-47 25 -102 24q-180 0 -223 -213l-234 -1200q-37 -193 -127 -272.5t-245 -79.5q-88 0 -134 26z" />
<glyph unicode="&#x2248;" horiz-adv-x="1171" d="M143 451q113 160 250 159q78 0 187 -55q106 -55 182 -55q106 0 184 92l82 -80q-115 -160 -250 -160q-80 0 -186 56q-109 55 -182 55q-109 0 -185 -92zM143 860q113 160 250 160q78 0 187 -55q106 -55 182 -56q106 0 184 92l82 -79q-115 -160 -250 -160q-80 0 -186 55 q-109 55 -182 55q-109 0 -185 -92z" />
<glyph unicode="&#x2260;" horiz-adv-x="1136" d="M172 408v114h266l129 226h-395v114h461l131 228l98 -58l-98 -170h201v-114h-267l-129 -226h396v-114h-461l-131 -228l-99 58l99 170h-201z" />
<glyph unicode="&#x2264;" horiz-adv-x="1085" d="M115 0v115h837v-115h-837zM190 754v139l684 369v-127l-579 -312l579 -311v-127z" />
<glyph unicode="&#x2265;" horiz-adv-x="1085" d="M133 0v115h838v-115h-838zM211 385v127l580 311l-580 312v127l684 -369v-139z" />
<glyph unicode="&#x25ca;" horiz-adv-x="1146" d="M141 717l369 717h127l369 -717l-369 -717h-127zM272 717l301 -586l301 586l-301 586z" />
<glyph unicode="&#xe000;" horiz-adv-x="1034" d="M0 0v1034h1034v-1034h-1034z" />
<glyph unicode="&#xf8ff;" horiz-adv-x="1626" d="M207 45v1219q0 37 33 45l553 159q20 8 41 0l552 -159q33 -8 33 -45v-1219q0 -18 -13 -31.5t-32 -13.5q-8 0 -14 2l-547 158l-547 -158q-6 -2 -14 -2q-18 0 -31.5 13.5t-13.5 31.5zM295 104l473 138v417q-150 12 -274.5 89t-198.5 200v-844zM297 1233q12 -190 145 -330 q135 -139 326 -153v620zM858 242l473 -138v844q-76 -123 -199.5 -199.5t-273.5 -89.5v-417zM858 750q193 16 324 153q135 139 147 330l-471 137v-620z" />
<glyph unicode="&#xfb01;" horiz-adv-x="1101" d="M102 913v119h164v33q0 178 115 281q117 104 287 104q129 0 225 -59l-27 -117q-100 57 -209 57q-119 0 -191.5 -67.5t-72.5 -178.5v-53h541v-1032h-127v913h-414v-913h-127v913h-164z" />
<glyph unicode="&#xfb02;" horiz-adv-x="1189" d="M102 913v119h160v66q0 352 320 352h428v-1450h-127v1331h-312q-182 0 -182 -213v-86h250v-119h-250v-913h-127v913h-160z" />
</font>
</defs>
</svg>
