<?xml version="1.0" encoding="UTF-8" standalone="no"?>
<svg width="279px" height="49px" viewBox="0 0 279 49" version="1.1" xmlns="http://www.w3.org/2000/svg" xmlns:xlink="http://www.w3.org/1999/xlink" xmlns:sketch="http://www.bohemiancoding.com/sketch/ns">
    <!-- Generator: Sketch 3.2.2 (9983) - http://www.bohemiancoding.com/sketch -->
    <title>AJ Brown.</title>
    <desc>Created with Sketch.</desc>
    <defs></defs>
    <g id="Page-1" stroke="none" stroke-width="1" fill="none" fill-rule="evenodd" sketch:type="MSPage">
        <g id="Mobile-Portrait" sketch:type="MSArtboardGroup" transform="translate(-20.000000, -20.000000)" fill="#FFFFFF">
            <path d="M54.3181258,68.1647727 L66.540074,68.1647727 L48.8631319,20 L36.7102343,20 L20,68.1647727 L31.324291,68.1647727 L35.2601726,56.6803977 L50.3131936,56.6803977 L54.3181258,68.1647727 Z M42.7866831,34.7556818 L46.998767,46.9360795 L38.5745993,46.9360795 L42.7866831,34.7556818 Z M85.3908755,20 L73.8594328,20 L73.8594328,54.1051136 C73.8594328,55.7059659 73.4451295,57.3764205 70.9593095,57.4460227 L68.2663379,57.4460227 L68.2663379,68.1647727 C69.7854501,68.234375 72.1331689,68.234375 72.8236745,68.234375 C82.974106,68.234375 85.3908755,63.0838068 85.3908755,55.4971591 L85.3908755,20 Z M133.173859,53.8267045 C133.173859,48.1889205 131.309494,44.8480114 127.373613,42.7599432 C130.273736,41.1590909 132.207152,37.3309659 132.207152,33.2244318 C132.207152,25.0809659 127.373613,20 117.568434,20 L101.203453,20 L101.203453,68.1647727 L118.673243,68.1647727 C127.442663,68.1647727 133.173859,62.7357955 133.173859,53.8267045 L133.173859,53.8267045 Z M116.877928,48.5369318 C119.5709,48.5369318 121.297164,50.2769886 121.297164,53.2698864 C121.297164,56.1235795 119.5709,58.0724432 116.877928,58.0724432 L112.596794,58.0724432 L112.596794,48.5369318 L116.877928,48.5369318 Z M116.463625,29.953125 C118.949445,29.953125 120.468557,31.484375 120.468557,34.3380682 C120.468557,37.1917614 118.880395,38.7230114 116.463625,38.7230114 L112.596794,38.7230114 L112.596794,29.953125 L116.463625,29.953125 Z M154.234279,30.71875 C150.919852,30.71875 149.124538,31.6931818 147.743527,33.5028409 L147.743527,30.9275568 L136.626387,30.9275568 L136.626387,68.1647727 L147.743527,68.1647727 L147.743527,45.9616477 C147.743527,43.6647727 148.503083,42.4815341 151.472256,42.4815341 L154.234279,42.4815341 L154.234279,30.71875 Z M166.318126,49.5809659 C166.318126,44.3607955 169.425401,40.3934659 174.673243,40.3934659 C179.713933,40.3934659 183.097411,44.3607955 183.097411,49.5809659 C183.097411,54.7315341 179.990136,58.6988636 174.742293,58.6988636 C169.770654,58.6988636 166.318126,54.8011364 166.318126,49.5809659 L166.318126,49.5809659 Z M155.270037,49.6505682 C155.270037,60.4389205 162.796547,68.7911932 174.673243,68.7911932 C186.411837,68.7911932 194.145499,60.2997159 194.145499,49.4417614 C194.145499,38.6534091 186.688039,30.3011364 174.604192,30.3011364 C163.279901,30.3011364 155.270037,38.7926136 155.270037,49.6505682 L155.270037,49.6505682 Z M228.118372,30.9275568 L216.310727,30.9275568 L210.993835,53.7571023 L206.022195,30.9275568 L193.454994,30.9275568 L203.812577,68.1647727 L216.310727,68.1647727 L221.972873,47.1448864 L227.84217,68.1647727 L240.133169,68.1647727 L249.938348,30.9275568 L238.406905,30.9275568 L233.366215,53.7571023 L228.118372,30.9275568 Z M271.205919,68.1647727 L282.323058,68.1647727 L282.323058,43.6647727 C282.323058,36.4957386 279.491985,30.5099432 270.791615,30.5099432 C266.303329,30.5099432 264.162762,32.5284091 263.334155,33.2940341 L263.334155,30.9275568 L252.217016,30.9275568 L252.217016,68.1647727 L263.334155,68.1647727 L263.334155,44.9176136 C263.334155,42.203125 264.715166,40.4630682 267.270037,40.4630682 C269.893958,40.4630682 271.205919,42.2727273 271.205919,44.9872159 L271.205919,68.1647727 Z M292.197287,69 C296.064118,69 298.964242,66.0071023 298.964242,62.109375 C298.964242,58.2116477 296.133169,55.2883523 292.197287,55.2883523 C288.261406,55.2883523 285.430333,58.2116477 285.430333,62.109375 C285.430333,66.0071023 288.330456,69 292.197287,69 L292.197287,69 Z" id="AJ-Brown." sketch:type="MSShapeGroup"></path>
        </g>
    </g>
</svg>