<?xml version="1.0" encoding="UTF-8" standalone="no"?>
<svg width="40px" height="40px" viewBox="0 0 40 40" version="1.1" xmlns="http://www.w3.org/2000/svg" xmlns:xlink="http://www.w3.org/1999/xlink" xmlns:sketch="http://www.bohemiancoding.com/sketch/ns">
    <!-- Generator: Sketch 3.2.2 (9983) - http://www.bohemiancoding.com/sketch -->
    <title>Imported Layers 2</title>
    <desc>Created with Sketch.</desc>
    <defs></defs>
    <g id="Page-1" stroke="none" stroke-width="1" fill="none" fill-rule="evenodd" sketch:type="MSPage">
        <g id="Mobile-Portrait" sketch:type="MSArtboardGroup" transform="translate(-20.000000, -288.000000)" fill="#58595B">
            <path d="M40,288 C28.972,288 20,296.972 20,308 C20,313.149333 21.9506667,318.037333 25.4933333,321.767333 C25.494,321.767333 25.494,321.768 25.4946667,321.768667 C25.496,321.769333 25.496,321.770667 25.496,321.770667 C25.4966667,321.770667 25.4966667,321.770667 25.4966667,321.771333 C25.4986667,321.774 25.5013333,321.776667 25.504,321.78 C25.5053333,321.780667 25.506,321.781333 25.5066667,321.782 C25.5066667,321.782 25.5066667,321.782667 25.5073333,321.782667 C25.5073333,321.783333 25.508,321.783333 25.5086667,321.784 C25.5093333,321.784 25.5093333,321.784667 25.51,321.786 C25.5106667,321.786667 25.5113333,321.787333 25.512,321.787333 L25.512,321.788 L25.5146667,321.790667 L25.5173333,321.793333 C25.5193333,321.794667 25.5206667,321.796667 25.5226667,321.798667 C25.522,321.798667 25.5226667,321.798667 25.5233333,321.799333 C25.524,321.8 25.5253333,321.801333 25.526,321.802667 C29.3666667,325.682667 34.7773333,328 40,328 C45.234,328 50.6453333,325.682667 54.4746667,321.801333 C54.478,321.798 54.4793333,321.792667 54.4826667,321.788667 C58.0406667,318.053333 60,313.156667 60,308 C60,296.972 51.028,288 40,288 L40,288 Z M53.8806667,320.469333 C52.946,319.978 51.0453333,319.284667 47.7406667,318.115333 C46.4906667,317.673333 45.2053333,317.218667 44.0286667,316.783333 L44.0286667,313.458667 C44.824,312.998667 46.3866667,311.694667 46.5386667,308.51 C46.8246667,308.364667 47.07,308.121333 47.2493333,307.796 C47.47,307.394667 47.592,306.87 47.592,306.319333 C47.592,305.346667 47.2446667,304.580667 46.6886667,304.211333 C46.698,304.182 46.7073333,304.152667 46.7173333,304.123333 C47.1166667,302.874667 47.86,300.55 47.3713333,298.592 C46.8126667,296.358 43.7306667,295.565333 41.2606667,295.565333 C39.0146667,295.565333 36.262,296.220667 35.3613333,298.02 C34.1953333,297.927333 33.5426667,298.423333 33.23,298.836 C32.202,300.193333 32.9206667,302.754 33.3066667,304.129333 C33.314,304.153333 33.32,304.177333 33.3273333,304.201333 C32.762,304.566 32.408,305.337333 32.408,306.319333 C32.408,307.376 32.818,308.189333 33.4613333,308.513333 C33.614,311.694667 35.176,312.998667 35.9706667,313.458667 L35.9706667,316.783333 C34.8833333,317.181333 33.7186667,317.561333 32.5873333,317.931333 C30.088,318.747333 27.7246667,319.525333 26.1206667,320.474667 C23.032,317.044 21.3333333,312.636667 21.3333333,308 C21.3333333,297.707333 29.7073333,289.333333 40,289.333333 C50.2926667,289.333333 58.6666667,297.707333 58.6666667,308 C58.6666667,312.632 56.9686667,317.036667 53.8806667,320.469333 L53.8806667,320.469333 Z" id="Imported-Layers-2" sketch:type="MSShapeGroup"></path>
        </g>
    </g>
</svg>