<svg xmlns="http://www.w3.org/2000/svg" width="40" height="40" viewBox="0 0 40 40" version="1.1">
  <title>
    Imported Layers 2
  </title>
  <desc>
    Created with Sketch.
  </desc>
  <g stroke="none" stroke-width="1" fill="none" fill-rule="evenodd">
    <g transform="translate(-20.000000, -288.000000)" fill="#58595B">
      <path d="M40 288C28.97 288 20 296.97 20 308 20 313.15 21.95 318.04 25.49 321.77 25.49 321.77 25.49 321.77 25.49 321.77 25.5 321.77 25.5 321.77 25.5 321.77 25.5 321.77 25.5 321.77 25.5 321.77 25.5 321.77 25.5 321.78 25.5 321.78 25.51 321.78 25.51 321.78 25.51 321.78 25.51 321.78 25.51 321.78 25.51 321.78 25.51 321.78 25.51 321.78 25.51 321.78 25.51 321.78 25.51 321.78 25.51 321.79 25.51 321.79 25.51 321.79 25.51 321.79L25.51 321.79 25.51 321.79 25.52 321.79C25.52 321.79 25.52 321.8 25.52 321.8 25.52 321.8 25.52 321.8 25.52 321.8 25.52 321.8 25.53 321.8 25.53 321.8 29.37 325.68 34.78 328 40 328 45.23 328 50.65 325.68 54.47 321.8 54.48 321.8 54.48 321.79 54.48 321.79 58.04 318.05 60 313.16 60 308 60 296.97 51.03 288 40 288L40 288ZM53.88 320.47C52.95 319.98 51.05 319.28 47.74 318.12 46.49 317.67 45.21 317.22 44.03 316.78L44.03 313.46C44.82 313 46.39 311.69 46.54 308.51 46.82 308.36 47.07 308.12 47.25 307.8 47.47 307.39 47.59 306.87 47.59 306.32 47.59 305.35 47.24 304.58 46.69 304.21 46.7 304.18 46.71 304.15 46.72 304.12 47.12 302.87 47.86 300.55 47.37 298.59 46.81 296.36 43.73 295.57 41.26 295.57 39.01 295.57 36.26 296.22 35.36 298.02 34.2 297.93 33.54 298.42 33.23 298.84 32.2 300.19 32.92 302.75 33.31 304.13 33.31 304.15 33.32 304.18 33.33 304.2 32.76 304.57 32.41 305.34 32.41 306.32 32.41 307.38 32.82 308.19 33.46 308.51 33.61 311.69 35.18 313 35.97 313.46L35.97 316.78C34.88 317.18 33.72 317.56 32.59 317.93 30.09 318.75 27.72 319.53 26.12 320.47 23.03 317.04 21.33 312.64 21.33 308 21.33 297.71 29.71 289.33 40 289.33 50.29 289.33 58.67 297.71 58.67 308 58.67 312.63 56.97 317.04 53.88 320.47L53.88 320.47Z"/>
    </g>
  </g>
</svg>
