<svg xmlns="http://www.w3.org/2000/svg" xmlns:xlink="http://www.w3.org/1999/xlink" xmlns:sketch="http://www.bohemiancoding.com/sketch/ns" width="44px" height="30px" viewBox="0 0 44 30" version="1.1"><style>.style0{fill:	none;fill-rule:	evenodd;}.style1{fill:	#58595B;}</style><!-- Generator: Sketch 3.2.2 (9983) - http://www.bohemiancoding.com/sketch --><title>Imported Layers</title><desc>Created with Sketch.</desc><defs/><g id="Page-1" sketch:type="MSPage" class="style0"><g id="Mobile-Portrait" sketch:type="MSArtboardGroup" class="style1"><path d="M40.3 0 L3.7 0 C1.7 0 0 1.8 0 3.8 L0 26.3 C0 28.3 1.7 30 3.7 30 L40.3 30 C42.3 30 44 28.3 44 26.3 L44 3.8 C44 1.8 42.3 0 40.3 0 L40.3 0 ZM13.6 18.6 L7 23.1 C6.9 23.2 6.7 23.2 6.6 23.2 C6.4 23.2 6.1 23.1 6 22.9 C5.8 22.6 5.9 22.1 6.2 21.9 L12.8 17.4 C13.1 17.1 13.6 17.2 13.8 17.6 C14 17.9 13.9 18.4 13.6 18.6 L13.6 18.6 ZM38 22.9 C37.9 23.1 37.6 23.2 37.4 23.2 C37.3 23.2 37.1 23.2 37 23.1 L30.4 18.6 C30.1 18.4 30 17.9 30.2 17.6 C30.4 17.2 30.9 17.1 31.2 17.4 L37.8 21.9 C38.1 22.1 38.2 22.6 38 22.9 L38 22.9 ZM37.8 8.9 L22.4 19.4 C22.3 19.5 22.1 19.5 22 19.5 C21.9 19.5 21.7 19.5 21.6 19.4 L6.2 8.9 C5.9 8.6 5.8 8.2 6 7.8 C6.2 7.5 6.7 7.4 7 7.6 L22 17.8 L37 7.6 C37.3 7.4 37.8 7.5 38 7.8 C38.2 8.2 38.1 8.6 37.8 8.9 L37.8 8.9 Z" id="Imported-Layers" sketch:type="MSShapeGroup"/></g></g></svg>