<?xml version="1.0" encoding="UTF-8" standalone="no"?>
<svg width="44px" height="30px" viewBox="0 0 44 30" version="1.1" xmlns="http://www.w3.org/2000/svg" xmlns:xlink="http://www.w3.org/1999/xlink" xmlns:sketch="http://www.bohemiancoding.com/sketch/ns">
    <!-- Generator: Sketch 3.2.2 (9983) - http://www.bohemiancoding.com/sketch -->
    <title>Imported Layers</title>
    <desc>Created with Sketch.</desc>
    <defs></defs>
    <g id="Page-1" stroke="none" stroke-width="1" fill="none" fill-rule="evenodd" sketch:type="MSPage">
        <g id="Mobile-Portrait" sketch:type="MSArtboardGroup" transform="translate(-256.000000, -293.000000)" fill="#58595B">
            <path d="M296.333333,293 L259.666667,293 C257.713067,293 256,294.752 256,296.75 L256,319.283 C256,321.263 257.713067,323 259.666667,323 L296.333333,323 C298.286933,323 300,321.263 300,319.283 L300,296.75 C300,294.752 298.286933,293 296.333333,293 L296.333333,293 Z M269.607,311.624 L263.007,316.124 C262.8816,316.2095 262.740067,316.25 262.600733,316.25 C262.363867,316.25 262.1314,316.133 261.989867,315.91625 C261.765467,315.57125 261.8564,315.1055 262.193,314.876 L268.793,310.376 C269.130333,310.145 269.585,310.23875 269.810133,310.58375 C270.034533,310.92875 269.9436,311.3945 269.607,311.624 L269.607,311.624 Z M294.010133,315.91625 C293.8686,316.133 293.636133,316.25 293.399267,316.25 C293.259933,316.25 293.1184,316.2095 292.993,316.124 L286.393,311.624 C286.0564,311.3945 285.965467,310.92875 286.189867,310.58375 C286.415,310.23875 286.869667,310.145 287.207,310.376 L293.807,314.876 C294.1436,315.1055 294.234533,315.57125 294.010133,315.91625 L294.010133,315.91625 Z M293.807,301.874 L278.407,312.374 C278.2838,312.458 278.141533,312.5 278,312.5 C277.858467,312.5 277.7162,312.458 277.593,312.374 L262.193,301.874 C261.8564,301.6445 261.765467,301.17875 261.989867,300.83375 C262.214267,300.48875 262.668933,300.395 263.007,300.626 L278,310.8485 L292.993,300.626 C293.330333,300.395 293.785,300.48875 294.010133,300.83375 C294.234533,301.17875 294.1436,301.6445 293.807,301.874 L293.807,301.874 Z" id="Imported-Layers" sketch:type="MSShapeGroup"></path>
        </g>
    </g>
</svg>